<?xml version="1.0" encoding="UTF-8" standalone="no"?>
<!DOCTYPE svg PUBLIC "-//W3C//DTD SVG 1.1//EN" "http://www.w3.org/Graphics/SVG/1.1/DTD/svg11.dtd">
<svg version="1.1" xmlns="http://www.w3.org/2000/svg" xmlns:xlink="http://www.w3.org/1999/xlink" preserveAspectRatio="xMidYMid meet" viewBox="0 0 640 640" width="640" height="640"><defs><path d="M0 320C0 496.73 143.27 640 320 640C496.73 640 640 496.73 640 320C639.8 143.35 496.65 0.2 320 0C143.27 0 0 143.27 0 320ZM56.89 320C56.89 174.69 174.69 56.89 320 56.89C465.31 56.89 583.11 174.69 583.11 320C582.95 465.25 465.25 582.95 320 583.11C174.69 583.11 56.89 465.31 56.89 320ZM320 106.67C339.64 106.67 355.56 122.59 355.56 142.22C355.56 161.86 339.64 177.78 320 177.78C300.36 177.78 284.44 161.86 284.44 142.22C284.44 122.59 300.36 106.67 320 106.67ZM398.22 497.78C398.22 505.63 391.85 512 384 512C371.2 512 268.8 512 256 512C248.15 512 241.78 505.63 241.78 497.78C241.78 494.93 241.78 472.18 241.78 469.33C241.78 461.48 248.15 455.11 256 455.11C257.42 455.11 268.8 455.11 270.22 455.11C278.08 455.11 284.44 448.74 284.44 440.89C284.44 427.38 284.44 319.29 284.44 305.78C284.44 297.92 278.08 291.56 270.22 291.56C268.8 291.56 257.42 291.56 256 291.56C248.15 291.56 241.78 285.19 241.78 277.33C241.78 274.49 241.78 251.73 241.78 248.89C241.78 241.03 248.15 234.67 256 234.67C264.53 234.67 332.8 234.67 341.33 234.67C349.19 234.67 355.56 241.03 355.56 248.89C355.56 268.09 355.56 421.69 355.56 440.89C355.56 448.74 361.92 455.11 369.78 455.11C371.2 455.11 382.58 455.11 384 455.11C391.85 455.11 398.22 461.48 398.22 469.33C398.22 475.02 398.22 494.93 398.22 497.78Z" id="a78mipOYsk"></path></defs><g><g><g><use xlink:href="#a78mipOYsk" opacity="1" fill="#c5c3c6" fill-opacity="0.84"></use><g><use xlink:href="#a78mipOYsk" opacity="1" fill-opacity="0" stroke="#000000" stroke-width="1" stroke-opacity="0"></use></g></g></g></g></svg>