<?xml version="1.0" encoding="UTF-8" standalone="no"?>
<!DOCTYPE svg PUBLIC "-//W3C//DTD SVG 1.1//EN" "http://www.w3.org/Graphics/SVG/1.1/DTD/svg11.dtd">
<svg version="1.1" xmlns="http://www.w3.org/2000/svg" xmlns:xlink="http://www.w3.org/1999/xlink" preserveAspectRatio="xMidYMid meet" viewBox="78.93409045597954 11.287999999999997 484.13181908804086 495.5200000000001" width="480.13" height="491.52"><defs><path d="M529.41 306.18C506.88 404.48 420.86 473.09 319.49 473.09C242.69 473.09 171.01 431.62 132.61 364.54C132.61 364.03 132.1 364.03 132.1 363.52C132.1 363.52 132.1 363.01 131.58 363.01C125.44 352.26 116.74 328.7 114.69 322.05C110.08 304.13 110.59 292.35 115.71 285.18C122.37 276.99 137.73 272.38 160.77 271.87C163.23 271.87 182.89 271.87 185.34 271.87C185.34 271.87 185.34 271.87 185.34 271.87C185.34 274.12 185.34 292.15 185.34 294.4C185.34 310.78 195.58 324.1 208.9 324.1C213.33 324.1 235.52 324.1 275.46 324.1L275.46 298.5L315.9 298.5L315.9 268.29L275.46 268.29L275.46 247.81L315.9 247.81L315.9 217.6L275.46 217.6L275.46 192C235.52 192 213.33 192 208.9 192C196.1 192 185.34 205.31 185.34 221.7C185.34 223.59 185.34 238.75 185.34 240.64C185.34 240.64 185.34 240.64 185.34 240.64C182.89 240.64 163.23 240.64 160.77 240.64C127.49 241.15 104.96 249.34 92.16 265.73C80.38 281.09 78.34 301.57 85.5 329.22C87.55 337.41 97.28 364.03 105.47 377.86C105.47 378.37 105.98 378.37 105.98 378.37C105.98 378.37 105.98 378.88 106.5 378.88C150.02 456.19 231.94 503.81 320 503.81C435.71 503.81 534.02 425.47 559.62 312.83C561.66 304.64 556.54 295.94 547.84 294.4C539.65 292.35 531.46 297.47 529.41 306.18ZM306.69 278.53L306.69 288.26L286.72 288.26L286.72 278.53L306.69 278.53ZM306.69 227.33L306.69 237.06L286.72 237.06L286.72 227.33L306.69 227.33ZM210.43 212.48C213.47 212.48 228.66 212.48 256 212.48L256 303.62C228.66 303.62 213.47 303.62 210.43 303.62C209.41 302.59 206.85 299.52 206.85 294.4C206.85 289.55 206.85 265.32 206.85 221.7C208.21 215.89 209.41 212.82 210.43 212.48Z" id="a9qyx8g58x"></path><path d="M95.74 221.7C102.91 221.7 109.06 217.09 110.59 209.92C132.61 111.62 219.14 43.01 320 43.01C396.8 43.01 468.48 84.48 506.88 151.55C507.39 152.58 508.42 153.6 508.93 154.62C515.07 166.4 522.24 186.88 524.29 193.02C528.9 210.94 528.38 222.72 523.26 229.89C516.61 238.08 501.25 242.69 478.21 243.2C476.6 243.2 468.58 243.2 454.14 243.2C454.14 230.91 454.14 224.09 454.14 222.72C454.14 206.34 443.9 193.02 430.59 193.02C426.15 193.02 403.97 193.02 364.03 193.02L364.03 325.12C403.97 325.12 426.15 325.12 430.59 325.12C443.39 325.12 454.14 311.81 454.14 295.42C454.14 294.06 454.14 287.23 454.14 274.94C468.58 274.94 476.6 274.94 478.21 274.94C512 274.43 535.04 266.24 547.84 249.86C559.62 234.5 561.66 214.02 554.5 186.37C552.45 178.18 542.72 151.55 534.53 137.73C534.02 136.19 532.99 135.17 531.97 134.14C486.91 58.37 406.53 12.29 320 12.29C204.29 12.29 105.98 90.62 80.38 203.26C78.34 211.46 83.46 219.65 92.16 221.18C93.18 221.7 94.21 221.7 95.74 221.7ZM429.57 303.1C426.53 303.1 411.34 303.1 384 303.1L384 212.48C411.34 212.48 426.53 212.48 429.57 212.48C430.59 213.5 433.15 216.58 433.15 221.7C433.15 226.51 433.15 250.57 433.15 293.89C431.79 299.69 430.59 302.76 429.57 303.1Z" id="a1qhIAlVsJ"></path></defs><g><g><use xlink:href="#a9qyx8g58x" opacity="1" fill="#c5c3c6" fill-opacity="1"></use><g><use xlink:href="#a9qyx8g58x" opacity="1" fill-opacity="0" stroke="#000000" stroke-width="1" stroke-opacity="0"></use></g></g><g><use xlink:href="#a1qhIAlVsJ" opacity="1" fill="#c5c3c6" fill-opacity="1"></use><g><use xlink:href="#a1qhIAlVsJ" opacity="1" fill-opacity="0" stroke="#000000" stroke-width="1" stroke-opacity="0"></use></g></g></g></svg>
