<?xml version="1.0" encoding="UTF-8" standalone="no"?>
<!DOCTYPE svg PUBLIC "-//W3C//DTD SVG 1.1//EN" "http://www.w3.org/Graphics/SVG/1.1/DTD/svg11.dtd">
<svg version="1.1" xmlns="http://www.w3.org/2000/svg" xmlns:xlink="http://www.w3.org/1999/xlink" preserveAspectRatio="xMidYMid meet" viewBox="-0.9999999999999574 102.37365265310379 644 437.2526946937926" width="640" height="433.25"><defs><path d="M260.16 217.31C260.16 203.59 247.83 193.44 227.27 193.44C214.06 193.05 201.42 198.78 193.01 208.96C194.23 210.28 203.99 220.85 205.21 222.17C210.29 216.52 217.44 213.18 225.02 212.89C232.9 212.89 238.11 216.07 238.11 221.41C238.11 226.49 233.4 229.41 224.64 229.29C223.95 229.29 220.51 229.29 214.33 229.29L214.33 247.59C220.5 247.51 223.92 247.47 224.61 247.46C235.66 247.46 239.85 250.23 239.85 255.71C239.85 260.79 235.02 264.47 226.26 264.47C217.76 264.44 209.62 261.01 203.65 254.95C202.41 256.38 192.45 267.86 191.21 269.3C200.61 279.14 213.79 284.46 227.39 283.89C248.46 283.89 262.07 272.97 262.07 257.6C261.75 247.36 254.16 238.81 244.03 237.28C253.42 235.22 260.12 226.93 260.16 217.31Z" id="a4PlYFJeCx"></path><path d="M306.66 232.07C308.57 219.75 315.17 212.38 325.46 212.38C331.83 212.39 337.99 214.74 342.74 218.99C343.74 217.36 351.76 204.25 352.77 202.61C344.94 196.53 335.26 193.3 325.34 193.47C299.83 193.47 283.68 212.52 283.68 240.2C283.68 265.86 296 283.76 322.04 283.76C341.44 283.76 356.32 271.56 356.32 253.16C356.54 237.91 344.35 225.37 329.1 225.16C328.35 225.15 327.6 225.17 326.85 225.22C319.55 225.21 312.45 227.62 306.66 232.07ZM306.65 251C309.13 245.77 314.46 242.48 320.24 242.61C327.02 241.77 333.2 246.59 334.04 253.37C334.07 253.59 334.09 253.82 334.11 254.05C333.76 260.66 328.12 265.75 321.5 265.41C321.26 265.4 321.01 265.38 320.77 265.35C311.88 265.35 308.06 260.65 306.65 251Z" id="bvbaZHoaS"></path><path d="M379.19 238.55C379.19 265.09 395.82 283.76 419.32 283.76C442.94 283.76 459.45 265.09 459.45 238.55C459.45 212.13 442.94 193.47 419.32 193.47C395.82 193.47 379.19 212.13 379.19 238.55ZM401.54 238.57C401.54 223.72 408.91 213.18 419.32 213.18C429.86 213.18 437.22 223.71 437.22 238.57C437.22 253.43 429.86 264.07 419.32 264.07C408.91 264.08 401.54 253.41 401.54 238.57Z" id="c3pC2o4En"></path><path d="M314.67 103.37C189.39 103.37 0 153.74 0 229.66C0 251.2 0 423.49 0 445.02C0 504.79 84.36 536.63 145.25 536.63C151.38 536.63 156.35 531.66 156.35 525.54C156.35 510.06 156.35 386.22 156.35 370.74C209.2 353.57 264.43 344.82 320 344.82C375.54 345.29 430.69 354.04 483.65 370.77C483.65 386.25 483.65 510.06 483.65 525.54C483.65 531.66 488.62 536.63 494.75 536.63C555.64 536.63 640 504.8 640 445.02C640 423.49 640 251.2 640 229.66C640 153.74 450.61 103.37 325.33 103.37C323.2 103.37 315.73 103.37 314.67 103.37ZM22.18 445.05C22.18 428.34 22.18 294.63 22.18 277.91C23.8 279.58 25.51 281.2 27.31 282.8C27.72 283.16 28.14 283.51 28.55 283.87C31.72 286.64 34.54 288.74 35.2 289.28C35.52 289.51 35.81 289.76 36.13 289.99C38.66 291.85 41.34 293.63 44.11 295.37C44.73 295.75 45.34 296.14 45.97 296.51C48.79 298.22 51.7 299.87 54.76 301.44C55.2 301.66 55.67 301.88 56.12 302.1C60.45 304.27 64.19 305.81 65.09 306.23C65.64 306.46 66.15 306.7 66.7 306.92C70.03 308.29 73.49 309.57 77.05 310.76C77.81 311.02 78.58 311.27 79.35 311.52C83.01 312.7 86.76 313.81 90.64 314.8C90.97 314.88 91.31 314.95 91.64 315.03C95.35 315.95 99.18 316.76 103.08 317.49C103.84 317.63 104.58 317.78 105.35 317.92C111.44 318.99 116.61 319.55 117.87 319.73C118.73 319.83 119.61 319.91 120.48 320C124.95 320.47 129.48 320.85 134.15 321.06C134.15 333.93 134.15 398.27 134.15 514.08C59.51 494.72 22.18 471.71 22.18 445.05ZM156.35 347.35C156.35 343.64 156.35 313.95 156.35 310.24C156.35 304.11 151.38 299.15 145.25 299.15C85.03 299.15 45.91 276.44 30.12 252.81C25.25 246.04 22.49 237.99 22.18 229.66C22.18 177.03 189.65 125.56 314.67 125.56C315.73 125.56 324.27 125.56 325.33 125.56C450.34 125.56 617.82 177.03 617.82 229.66C617.82 258.79 575.05 299.15 494.75 299.15C488.62 299.15 483.65 304.11 483.65 310.24C483.65 313.95 483.65 343.68 483.65 347.39C430.53 331.52 375.44 323.18 320 322.64C264.52 322.71 209.37 331.04 156.35 347.35ZM617.82 445.02C617.82 485.02 555.84 510.65 505.84 514.06C505.84 501.19 505.84 436.88 505.84 321.11C505.84 321.11 505.84 321.11 505.84 321.11C510.49 320.9 515.01 320.51 519.47 320.05C520.35 319.96 521.24 319.88 522.11 319.78C528.5 319.03 533.35 318.15 534.6 317.97C535.38 317.83 536.14 317.68 536.9 317.53C540.78 316.8 544.59 315.99 548.27 315.08C548.62 314.99 548.98 314.92 549.32 314.83C553.2 313.85 556.93 312.74 560.57 311.56C561.36 311.31 562.14 311.06 562.92 310.79C566.46 309.59 569.91 308.32 573.23 306.96C573.79 306.73 574.34 306.48 574.9 306.25C579.51 304.3 582.92 302.55 583.81 302.14C584.27 301.91 584.75 301.7 585.21 301.46C588.25 299.9 591.16 298.25 593.97 296.56C594.61 296.17 595.23 295.79 595.85 295.4C598.63 293.66 601.29 291.88 603.82 290.03C604.14 289.79 604.44 289.54 604.76 289.3C608.26 286.68 610.75 284.45 611.42 283.91C611.84 283.55 612.26 283.2 612.67 282.83C614.45 281.23 616.18 279.61 617.79 277.95C617.8 311.36 617.81 411.61 617.82 445.02Z" id="g3gYlgigoE"></path></defs><g><g><use xlink:href="#a4PlYFJeCx" opacity="1" fill="#c5c3c6" fill-opacity="1"></use><g><use xlink:href="#a4PlYFJeCx" opacity="1" fill-opacity="0" stroke="#000000" stroke-width="1" stroke-opacity="0"></use></g></g><g><use xlink:href="#bvbaZHoaS" opacity="1" fill="#c5c3c6" fill-opacity="1"></use><g><use xlink:href="#bvbaZHoaS" opacity="1" fill-opacity="0" stroke="#000000" stroke-width="1" stroke-opacity="0"></use></g></g><g><use xlink:href="#c3pC2o4En" opacity="1" fill="#c5c3c6" fill-opacity="1"></use><g><use xlink:href="#c3pC2o4En" opacity="1" fill-opacity="0" stroke="#000000" stroke-width="1" stroke-opacity="0"></use></g></g><g><use xlink:href="#g3gYlgigoE" opacity="1" fill="#c5c3c6" fill-opacity="1"></use><g><use xlink:href="#g3gYlgigoE" opacity="1" fill-opacity="0" stroke="#000000" stroke-width="1" stroke-opacity="0"></use></g></g></g></svg>