<?xml version="1.0" encoding="UTF-8" standalone="no"?>
<!DOCTYPE svg PUBLIC "-//W3C//DTD SVG 1.1//EN" "http://www.w3.org/Graphics/SVG/1.1/DTD/svg11.dtd">
<svg version="1.1" xmlns="http://www.w3.org/2000/svg" xmlns:xlink="http://www.w3.org/1999/xlink" preserveAspectRatio="xMidYMid meet" viewBox="0 0 640 640" width="640" height="640"><defs><path d="M36.78 640C16.35 640 0 623.8 0 603.54C0 546.84 0 93.16 0 36.46C0 16.2 16.35 0 36.78 0C93.42 0 546.55 0 603.19 0C623.62 0 639.97 16.2 639.97 36.46C639.97 93.16 639.97 546.84 639.97 603.54C640.79 623.8 624.44 640 604.01 640C490.56 640 93.5 640 36.78 640ZM24.52 36.46C24.52 93.16 24.52 546.84 24.52 603.54C24.52 610.03 30.24 615.7 36.78 615.7C93.42 615.7 546.55 615.7 603.19 615.7C609.73 615.7 615.45 610.03 615.45 603.54C615.45 546.84 615.45 93.16 615.45 36.46C615.45 29.97 609.73 24.3 603.19 24.3C565.43 24.3 376.63 24.3 36.78 24.3C28.61 28.08 24.52 32.14 24.52 36.46Z" id="bdMeyCZQr"></path><path d="M223.13 453.67C202.7 453.67 186.35 437.47 186.35 417.22C186.35 397.77 186.35 242.23 186.35 222.78C186.35 202.53 202.7 186.33 223.13 186.33C242.58 186.33 398.2 186.33 417.66 186.33C438.09 186.33 454.44 202.53 454.44 222.78C454.44 242.23 454.44 397.77 454.44 417.22C454.44 437.47 438.09 453.67 417.66 453.67C378.75 453.67 242.58 453.67 223.13 453.67ZM210.87 222.78C210.87 242.23 210.87 397.77 210.87 417.22C210.87 423.7 216.59 429.37 223.13 429.37C242.58 429.37 398.2 429.37 417.66 429.37C424.2 429.37 429.92 423.7 429.92 417.22C429.92 397.77 429.92 242.23 429.92 222.78C429.92 216.3 424.2 210.63 417.66 210.63C404.69 210.63 339.85 210.63 223.13 210.63C214.96 214.41 210.87 218.46 210.87 222.78Z" id="b3ynILVTHv"></path><path d="M56.4 42.94C48.27 42.94 41.68 49.47 41.68 57.52C41.68 65.57 48.27 72.1 56.4 72.1C64.52 72.1 71.11 65.57 71.11 57.52C71.11 49.47 64.52 42.94 56.4 42.94Z" id="mftRoHP7y"></path><path d="M109.52 42.94C101.4 42.94 94.81 49.47 94.81 57.52C94.81 65.57 101.4 72.1 109.52 72.1C117.65 72.1 124.23 65.57 124.23 57.52C124.23 49.47 117.65 42.94 109.52 42.94Z" id="c7P1BnIMW"></path><path d="M161.83 42.94C153.71 42.94 147.12 49.47 147.12 57.52C147.12 65.57 153.71 72.1 161.83 72.1C169.96 72.1 176.54 65.57 176.54 57.52C176.54 49.47 169.96 42.94 161.83 42.94Z" id="a1r91qyRt"></path><path d="M214.96 42.94C206.83 42.94 200.25 49.47 200.25 57.52C200.25 65.57 206.83 72.1 214.96 72.1C223.08 72.1 229.67 65.57 229.67 57.52C229.67 49.47 223.08 42.94 214.96 42.94Z" id="cnHpG9RRT"></path><path d="M267.27 42.94C259.14 42.94 252.56 49.47 252.56 57.52C252.56 65.57 259.14 72.1 267.27 72.1C275.39 72.1 281.98 65.57 281.98 57.52C281.98 49.47 275.39 42.94 267.27 42.94Z" id="b2BZeMONk"></path><path d="M320.39 42.94C312.27 42.94 305.68 49.47 305.68 57.52C305.68 65.57 312.27 72.1 320.39 72.1C328.52 72.1 335.11 65.57 335.11 57.52C335.11 49.47 328.52 42.94 320.39 42.94Z" id="igIdfhwKE"></path><path d="M373.52 42.94C365.4 42.94 358.81 49.47 358.81 57.52C358.81 65.57 365.4 72.1 373.52 72.1C381.65 72.1 388.23 65.57 388.23 57.52C388.23 49.47 381.65 42.94 373.52 42.94Z" id="b3TDSuolxk"></path><path d="M425.83 42.94C417.7 42.94 411.12 49.47 411.12 57.52C411.12 65.57 417.7 72.1 425.83 72.1C433.95 72.1 440.54 65.57 440.54 57.52C440.54 49.47 433.95 42.94 425.83 42.94Z" id="b1jUpDaX0c"></path><path d="M478.96 42.94C470.83 42.94 464.24 49.47 464.24 57.52C464.24 65.57 470.83 72.1 478.96 72.1C487.08 72.1 493.67 65.57 493.67 57.52C493.67 49.47 487.08 42.94 478.96 42.94Z" id="a1jxrK4HHu"></path><path d="M531.27 42.94C523.14 42.94 516.55 49.47 516.55 57.52C516.55 65.57 523.14 72.1 531.27 72.1C539.39 72.1 545.98 65.57 545.98 57.52C545.98 49.47 539.39 42.94 531.27 42.94Z" id="eB2Yvf8Ue"></path><path d="M584.39 42.94C576.27 42.94 569.68 49.47 569.68 57.52C569.68 65.57 576.27 72.1 584.39 72.1C592.52 72.1 599.1 65.57 599.1 57.52C599.1 49.47 592.52 42.94 584.39 42.94Z" id="c2E0Tm1psT"></path><path d="M56.4 95.59C48.27 95.59 41.68 102.12 41.68 110.18C41.68 118.23 48.27 124.76 56.4 124.76C64.52 124.76 71.11 118.23 71.11 110.18C71.11 102.12 64.52 95.59 56.4 95.59Z" id="a2pHFzmflZ"></path><path d="M109.52 95.59C101.4 95.59 94.81 102.12 94.81 110.18C94.81 118.23 101.4 124.76 109.52 124.76C117.65 124.76 124.23 118.23 124.23 110.18C124.23 102.12 117.65 95.59 109.52 95.59Z" id="axQtxyOY7"></path><path d="M161.83 95.59C153.71 95.59 147.12 102.12 147.12 110.18C147.12 118.23 153.71 124.76 161.83 124.76C169.96 124.76 176.54 118.23 176.54 110.18C176.54 102.12 169.96 95.59 161.83 95.59Z" id="f17Hl0ajuE"></path><path d="M214.96 95.59C206.83 95.59 200.25 102.12 200.25 110.18C200.25 118.23 206.83 124.76 214.96 124.76C223.08 124.76 229.67 118.23 229.67 110.18C229.67 102.12 223.08 95.59 214.96 95.59Z" id="bk7BuSKT8"></path><path d="M267.27 95.59C259.14 95.59 252.56 102.12 252.56 110.18C252.56 118.23 259.14 124.76 267.27 124.76C275.39 124.76 281.98 118.23 281.98 110.18C281.98 102.12 275.39 95.59 267.27 95.59Z" id="i7bKwPEpqD"></path><path d="M320.39 95.59C312.27 95.59 305.68 102.12 305.68 110.18C305.68 118.23 312.27 124.76 320.39 124.76C328.52 124.76 335.11 118.23 335.11 110.18C335.11 102.12 328.52 95.59 320.39 95.59Z" id="dv6uU3hF4"></path><path d="M373.52 95.59C365.4 95.59 358.81 102.12 358.81 110.18C358.81 118.23 365.4 124.76 373.52 124.76C381.65 124.76 388.23 118.23 388.23 110.18C388.23 102.12 381.65 95.59 373.52 95.59Z" id="d1m1IVaaA7"></path><path d="M425.83 95.59C417.7 95.59 411.12 102.12 411.12 110.18C411.12 118.23 417.7 124.76 425.83 124.76C433.95 124.76 440.54 118.23 440.54 110.18C440.54 102.12 433.95 95.59 425.83 95.59Z" id="acombDPQ5"></path><path d="M478.96 95.59C470.83 95.59 464.24 102.12 464.24 110.18C464.24 118.23 470.83 124.76 478.96 124.76C487.08 124.76 493.67 118.23 493.67 110.18C493.67 102.12 487.08 95.59 478.96 95.59Z" id="b1RTjGFnDi"></path><path d="M531.27 95.59C523.14 95.59 516.55 102.12 516.55 110.18C516.55 118.23 523.14 124.76 531.27 124.76C539.39 124.76 545.98 118.23 545.98 110.18C545.98 102.12 539.39 95.59 531.27 95.59Z" id="a4rMw0fHXA"></path><path d="M584.39 95.59C576.27 95.59 569.68 102.12 569.68 110.18C569.68 118.23 576.27 124.76 584.39 124.76C592.52 124.76 599.1 118.23 599.1 110.18C599.1 102.12 592.52 95.59 584.39 95.59Z" id="aaH5fRR8mm"></path><path d="M56.4 148.25C48.27 148.25 41.68 154.78 41.68 162.84C41.68 170.89 48.27 177.42 56.4 177.42C64.52 177.42 71.11 170.89 71.11 162.84C71.11 154.78 64.52 148.25 56.4 148.25Z" id="c5dqsrdfPD"></path><path d="M109.52 148.25C101.4 148.25 94.81 154.78 94.81 162.84C94.81 170.89 101.4 177.42 109.52 177.42C117.65 177.42 124.23 170.89 124.23 162.84C124.23 154.78 117.65 148.25 109.52 148.25Z" id="e2QxxC5KwU"></path><path d="M161.83 148.25C153.71 148.25 147.12 154.78 147.12 162.84C147.12 170.89 153.71 177.42 161.83 177.42C169.96 177.42 176.54 170.89 176.54 162.84C176.54 154.78 169.96 148.25 161.83 148.25Z" id="b9zCnhiilF"></path><path d="M214.96 148.25C206.83 148.25 200.25 154.78 200.25 162.84C200.25 170.89 206.83 177.42 214.96 177.42C223.08 177.42 229.67 170.89 229.67 162.84C229.67 154.78 223.08 148.25 214.96 148.25Z" id="a4hcBrC0y"></path><path d="M267.27 148.25C259.14 148.25 252.56 154.78 252.56 162.84C252.56 170.89 259.14 177.42 267.27 177.42C275.39 177.42 281.98 170.89 281.98 162.84C281.98 154.78 275.39 148.25 267.27 148.25Z" id="a2bQyKyIcR"></path><path d="M320.39 148.25C312.27 148.25 305.68 154.78 305.68 162.84C305.68 170.89 312.27 177.42 320.39 177.42C328.52 177.42 335.11 170.89 335.11 162.84C335.11 154.78 328.52 148.25 320.39 148.25Z" id="a1tGCRrfR"></path><path d="M373.52 148.25C365.4 148.25 358.81 154.78 358.81 162.84C358.81 170.89 365.4 177.42 373.52 177.42C381.65 177.42 388.23 170.89 388.23 162.84C388.23 154.78 381.65 148.25 373.52 148.25Z" id="axI8dnJXQ"></path><path d="M425.83 148.25C417.7 148.25 411.12 154.78 411.12 162.84C411.12 170.89 417.7 177.42 425.83 177.42C433.95 177.42 440.54 170.89 440.54 162.84C440.54 154.78 433.95 148.25 425.83 148.25Z" id="b3Mx92yyZ"></path><path d="M478.96 148.25C470.83 148.25 464.24 154.78 464.24 162.84C464.24 170.89 470.83 177.42 478.96 177.42C487.08 177.42 493.67 170.89 493.67 162.84C493.67 154.78 487.08 148.25 478.96 148.25Z" id="c8BFoMtvMB"></path><path d="M531.27 148.25C523.14 148.25 516.55 154.78 516.55 162.84C516.55 170.89 523.14 177.42 531.27 177.42C539.39 177.42 545.98 170.89 545.98 162.84C545.98 154.78 539.39 148.25 531.27 148.25Z" id="a99c0QDqs"></path><path d="M584.39 148.25C576.27 148.25 569.68 154.78 569.68 162.84C569.68 170.89 576.27 177.42 584.39 177.42C592.52 177.42 599.1 170.89 599.1 162.84C599.1 154.78 592.52 148.25 584.39 148.25Z" id="a66e6pRDUx"></path><path d="M56.4 200.91C48.27 200.91 41.68 207.44 41.68 215.49C41.68 223.55 48.27 230.08 56.4 230.08C64.52 230.08 71.11 223.55 71.11 215.49C71.11 207.44 64.52 200.91 56.4 200.91Z" id="a8PAlYSkCH"></path><path d="M109.52 200.91C101.4 200.91 94.81 207.44 94.81 215.49C94.81 223.55 101.4 230.08 109.52 230.08C117.65 230.08 124.23 223.55 124.23 215.49C124.23 207.44 117.65 200.91 109.52 200.91Z" id="anRndjfL5"></path><path d="M161.83 200.91C153.71 200.91 147.12 207.44 147.12 215.49C147.12 223.55 153.71 230.08 161.83 230.08C169.96 230.08 176.54 223.55 176.54 215.49C176.54 207.44 169.96 200.91 161.83 200.91Z" id="f3d2QXU5nG"></path><path d="M478.96 200.91C470.83 200.91 464.24 207.44 464.24 215.49C464.24 223.55 470.83 230.08 478.96 230.08C487.08 230.08 493.67 223.55 493.67 215.49C493.67 207.44 487.08 200.91 478.96 200.91Z" id="cfIb6Bspb"></path><path d="M531.27 200.91C523.14 200.91 516.55 207.44 516.55 215.49C516.55 223.55 523.14 230.08 531.27 230.08C539.39 230.08 545.98 223.55 545.98 215.49C545.98 207.44 539.39 200.91 531.27 200.91Z" id="b2lmLjM15u"></path><path d="M584.39 200.91C576.27 200.91 569.68 207.44 569.68 215.49C569.68 223.55 576.27 230.08 584.39 230.08C592.52 230.08 599.1 223.55 599.1 215.49C599.1 207.44 592.52 200.91 584.39 200.91Z" id="c6eGUWOm8"></path><path d="M56.4 252.76C48.27 252.76 41.68 259.29 41.68 267.34C41.68 275.4 48.27 281.92 56.4 281.92C64.52 281.92 71.11 275.4 71.11 267.34C71.11 259.29 64.52 252.76 56.4 252.76Z" id="b13yrFt3hw"></path><path d="M109.52 252.76C101.4 252.76 94.81 259.29 94.81 267.34C94.81 275.4 101.4 281.92 109.52 281.92C117.65 281.92 124.23 275.4 124.23 267.34C124.23 259.29 117.65 252.76 109.52 252.76Z" id="a2Pz0CuJOr"></path><path d="M161.83 252.76C153.71 252.76 147.12 259.29 147.12 267.34C147.12 275.4 153.71 281.92 161.83 281.92C169.96 281.92 176.54 275.4 176.54 267.34C176.54 259.29 169.96 252.76 161.83 252.76Z" id="bAuqVv8hL"></path><path d="M478.96 252.76C470.83 252.76 464.24 259.29 464.24 267.34C464.24 275.4 470.83 281.92 478.96 281.92C487.08 281.92 493.67 275.4 493.67 267.34C493.67 259.29 487.08 252.76 478.96 252.76Z" id="c2zzCVD7Y5"></path><path d="M531.27 252.76C523.14 252.76 516.55 259.29 516.55 267.34C516.55 275.4 523.14 281.92 531.27 281.92C539.39 281.92 545.98 275.4 545.98 267.34C545.98 259.29 539.39 252.76 531.27 252.76Z" id="a18VWLEuIF"></path><path d="M584.39 252.76C576.27 252.76 569.68 259.29 569.68 267.34C569.68 275.4 576.27 281.92 584.39 281.92C592.52 281.92 599.1 275.4 599.1 267.34C599.1 259.29 592.52 252.76 584.39 252.76Z" id="bi95ZRDvf"></path><path d="M56.4 305.42C48.27 305.42 41.68 311.95 41.68 320C41.68 328.05 48.27 334.58 56.4 334.58C64.52 334.58 71.11 328.05 71.11 320C71.11 311.95 64.52 305.42 56.4 305.42Z" id="a4QibPC68V"></path><path d="M109.52 305.42C101.4 305.42 94.81 311.95 94.81 320C94.81 328.05 101.4 334.58 109.52 334.58C117.65 334.58 124.23 328.05 124.23 320C124.23 311.95 117.65 305.42 109.52 305.42Z" id="aRNyFbSWL"></path><path d="M161.83 305.42C153.71 305.42 147.12 311.95 147.12 320C147.12 328.05 153.71 334.58 161.83 334.58C169.96 334.58 176.54 328.05 176.54 320C176.54 311.95 169.96 305.42 161.83 305.42Z" id="aoEw4HypJ"></path><path d="M478.96 305.42C470.83 305.42 464.24 311.95 464.24 320C464.24 328.05 470.83 334.58 478.96 334.58C487.08 334.58 493.67 328.05 493.67 320C493.67 311.95 487.08 305.42 478.96 305.42Z" id="cxaSjbivD"></path><path d="M531.27 305.42C523.14 305.42 516.55 311.95 516.55 320C516.55 328.05 523.14 334.58 531.27 334.58C539.39 334.58 545.98 328.05 545.98 320C545.98 311.95 539.39 305.42 531.27 305.42Z" id="h1DHE2vq5p"></path><path d="M584.39 305.42C576.27 305.42 569.68 311.95 569.68 320C569.68 328.05 576.27 334.58 584.39 334.58C592.52 334.58 599.1 328.05 599.1 320C599.1 311.95 592.52 305.42 584.39 305.42Z" id="a3t7oPeB8"></path><path d="M56.4 358.08C48.27 358.08 41.68 364.6 41.68 372.66C41.68 380.71 48.27 387.24 56.4 387.24C64.52 387.24 71.11 380.71 71.11 372.66C71.11 364.6 64.52 358.08 56.4 358.08Z" id="dR8vaVpz9"></path><path d="M109.52 358.08C101.4 358.08 94.81 364.6 94.81 372.66C94.81 380.71 101.4 387.24 109.52 387.24C117.65 387.24 124.23 380.71 124.23 372.66C124.23 364.6 117.65 358.08 109.52 358.08Z" id="gYrXa000P"></path><path d="M161.83 358.08C153.71 358.08 147.12 364.6 147.12 372.66C147.12 380.71 153.71 387.24 161.83 387.24C169.96 387.24 176.54 380.71 176.54 372.66C176.54 364.6 169.96 358.08 161.83 358.08Z" id="dGjoUTSMk"></path><path d="M478.96 358.08C470.83 358.08 464.24 364.6 464.24 372.66C464.24 380.71 470.83 387.24 478.96 387.24C487.08 387.24 493.67 380.71 493.67 372.66C493.67 364.6 487.08 358.08 478.96 358.08Z" id="d6yMOUJgGP"></path><path d="M531.27 358.08C523.14 358.08 516.55 364.6 516.55 372.66C516.55 380.71 523.14 387.24 531.27 387.24C539.39 387.24 545.98 380.71 545.98 372.66C545.98 364.6 539.39 358.08 531.27 358.08Z" id="b2dsTE3LO5"></path><path d="M584.39 358.08C576.27 358.08 569.68 364.6 569.68 372.66C569.68 380.71 576.27 387.24 584.39 387.24C592.52 387.24 599.1 380.71 599.1 372.66C599.1 364.6 592.52 358.08 584.39 358.08Z" id="asxBEadZK"></path><path d="M56.4 410.73C48.27 410.73 41.68 417.26 41.68 425.32C41.68 433.37 48.27 439.9 56.4 439.9C64.52 439.9 71.11 433.37 71.11 425.32C71.11 417.26 64.52 410.73 56.4 410.73Z" id="b4iUSGJ0NX"></path><path d="M109.52 410.73C101.4 410.73 94.81 417.26 94.81 425.32C94.81 433.37 101.4 439.9 109.52 439.9C117.65 439.9 124.23 433.37 124.23 425.32C124.23 417.26 117.65 410.73 109.52 410.73Z" id="aCuwFr6f4"></path><path d="M161.83 410.73C153.71 410.73 147.12 417.26 147.12 425.32C147.12 433.37 153.71 439.9 161.83 439.9C169.96 439.9 176.54 433.37 176.54 425.32C176.54 417.26 169.96 410.73 161.83 410.73Z" id="b3XjhGzAm"></path><path d="M478.96 410.73C470.83 410.73 464.24 417.26 464.24 425.32C464.24 433.37 470.83 439.9 478.96 439.9C487.08 439.9 493.67 433.37 493.67 425.32C493.67 417.26 487.08 410.73 478.96 410.73Z" id="a3jmqaRZKl"></path><path d="M531.27 410.73C523.14 410.73 516.55 417.26 516.55 425.32C516.55 433.37 523.14 439.9 531.27 439.9C539.39 439.9 545.98 433.37 545.98 425.32C545.98 417.26 539.39 410.73 531.27 410.73Z" id="fkNOvv1FM"></path><path d="M584.39 410.73C576.27 410.73 569.68 417.26 569.68 425.32C569.68 433.37 576.27 439.9 584.39 439.9C592.52 439.9 599.1 433.37 599.1 425.32C599.1 417.26 592.52 410.73 584.39 410.73Z" id="a1488sjj3X"></path><path d="M56.4 463.39C48.27 463.39 41.68 469.92 41.68 477.97C41.68 486.03 48.27 492.56 56.4 492.56C64.52 492.56 71.11 486.03 71.11 477.97C71.11 469.92 64.52 463.39 56.4 463.39Z" id="c3Ukm3txWd"></path><path d="M109.52 463.39C101.4 463.39 94.81 469.92 94.81 477.97C94.81 486.03 101.4 492.56 109.52 492.56C117.65 492.56 124.23 486.03 124.23 477.97C124.23 469.92 117.65 463.39 109.52 463.39Z" id="c1qyehJStg"></path><path d="M161.83 463.39C153.71 463.39 147.12 469.92 147.12 477.97C147.12 486.03 153.71 492.56 161.83 492.56C169.96 492.56 176.54 486.03 176.54 477.97C176.54 469.92 169.96 463.39 161.83 463.39Z" id="alLGw7p9i"></path><path d="M214.96 463.39C206.83 463.39 200.25 469.92 200.25 477.97C200.25 486.03 206.83 492.56 214.96 492.56C223.08 492.56 229.67 486.03 229.67 477.97C229.67 469.92 223.08 463.39 214.96 463.39Z" id="efrh93GFu"></path><path d="M267.27 463.39C259.14 463.39 252.56 469.92 252.56 477.97C252.56 486.03 259.14 492.56 267.27 492.56C275.39 492.56 281.98 486.03 281.98 477.97C281.98 469.92 275.39 463.39 267.27 463.39Z" id="krsaP43Lv"></path><path d="M320.39 463.39C312.27 463.39 305.68 469.92 305.68 477.97C305.68 486.03 312.27 492.56 320.39 492.56C328.52 492.56 335.11 486.03 335.11 477.97C335.11 469.92 328.52 463.39 320.39 463.39Z" id="caoxDC6GSl"></path><path d="M373.52 463.39C365.4 463.39 358.81 469.92 358.81 477.97C358.81 486.03 365.4 492.56 373.52 492.56C381.65 492.56 388.23 486.03 388.23 477.97C388.23 469.92 381.65 463.39 373.52 463.39Z" id="c2HGxR8fsy"></path><path d="M425.83 463.39C417.7 463.39 411.12 469.92 411.12 477.97C411.12 486.03 417.7 492.56 425.83 492.56C433.95 492.56 440.54 486.03 440.54 477.97C440.54 469.92 433.95 463.39 425.83 463.39Z" id="a1pOzCIjpL"></path><path d="M478.96 463.39C470.83 463.39 464.24 469.92 464.24 477.97C464.24 486.03 470.83 492.56 478.96 492.56C487.08 492.56 493.67 486.03 493.67 477.97C493.67 469.92 487.08 463.39 478.96 463.39Z" id="i39gD9UCkE"></path><path d="M531.27 463.39C523.14 463.39 516.55 469.92 516.55 477.97C516.55 486.03 523.14 492.56 531.27 492.56C539.39 492.56 545.98 486.03 545.98 477.97C545.98 469.92 539.39 463.39 531.27 463.39Z" id="g6rpEKqtr"></path><path d="M584.39 463.39C576.27 463.39 569.68 469.92 569.68 477.97C569.68 486.03 576.27 492.56 584.39 492.56C592.52 492.56 599.1 486.03 599.1 477.97C599.1 469.92 592.52 463.39 584.39 463.39Z" id="crv2N0Xi"></path><path d="M56.4 516.05C48.27 516.05 41.68 522.58 41.68 530.63C41.68 538.69 48.27 545.22 56.4 545.22C64.52 545.22 71.11 538.69 71.11 530.63C71.11 522.58 64.52 516.05 56.4 516.05Z" id="b4DHQkge87"></path><path d="M109.52 516.05C101.4 516.05 94.81 522.58 94.81 530.63C94.81 538.69 101.4 545.22 109.52 545.22C117.65 545.22 124.23 538.69 124.23 530.63C124.23 522.58 117.65 516.05 109.52 516.05Z" id="b1qAPaGptE"></path><path d="M161.83 516.05C153.71 516.05 147.12 522.58 147.12 530.63C147.12 538.69 153.71 545.22 161.83 545.22C169.96 545.22 176.54 538.69 176.54 530.63C176.54 522.58 169.96 516.05 161.83 516.05Z" id="c4T0RdxkW"></path><path d="M214.96 516.05C206.83 516.05 200.25 522.58 200.25 530.63C200.25 538.69 206.83 545.22 214.96 545.22C223.08 545.22 229.67 538.69 229.67 530.63C229.67 522.58 223.08 516.05 214.96 516.05Z" id="a8p6mmo81"></path><path d="M267.27 516.05C259.14 516.05 252.56 522.58 252.56 530.63C252.56 538.69 259.14 545.22 267.27 545.22C275.39 545.22 281.98 538.69 281.98 530.63C281.98 522.58 275.39 516.05 267.27 516.05Z" id="e4EFaOh1sX"></path><path d="M320.39 516.05C312.27 516.05 305.68 522.58 305.68 530.63C305.68 538.69 312.27 545.22 320.39 545.22C328.52 545.22 335.11 538.69 335.11 530.63C335.11 522.58 328.52 516.05 320.39 516.05Z" id="bqmvq0yMj"></path><path d="M373.52 516.05C365.4 516.05 358.81 522.58 358.81 530.63C358.81 538.69 365.4 545.22 373.52 545.22C381.65 545.22 388.23 538.69 388.23 530.63C388.23 522.58 381.65 516.05 373.52 516.05Z" id="e51hmTUGIy"></path><path d="M425.83 516.05C417.7 516.05 411.12 522.58 411.12 530.63C411.12 538.69 417.7 545.22 425.83 545.22C433.95 545.22 440.54 538.69 440.54 530.63C440.54 522.58 433.95 516.05 425.83 516.05Z" id="a1bJkyCF2I"></path><path d="M478.96 516.05C470.83 516.05 464.24 522.58 464.24 530.63C464.24 538.69 470.83 545.22 478.96 545.22C487.08 545.22 493.67 538.69 493.67 530.63C493.67 522.58 487.08 516.05 478.96 516.05Z" id="e6J5DpTSZ7"></path><path d="M531.27 516.05C523.14 516.05 516.55 522.58 516.55 530.63C516.55 538.69 523.14 545.22 531.27 545.22C539.39 545.22 545.98 538.69 545.98 530.63C545.98 522.58 539.39 516.05 531.27 516.05Z" id="a1Gfw7XEld"></path><path d="M584.39 516.05C576.27 516.05 569.68 522.58 569.68 530.63C569.68 538.69 576.27 545.22 584.39 545.22C592.52 545.22 599.1 538.69 599.1 530.63C599.1 522.58 592.52 516.05 584.39 516.05Z" id="cmBJPDKVy"></path><path d="M56.4 568.71C48.27 568.71 41.68 575.24 41.68 583.29C41.68 591.34 48.27 597.87 56.4 597.87C64.52 597.87 71.11 591.34 71.11 583.29C71.11 575.24 64.52 568.71 56.4 568.71Z" id="ejOimpFMq"></path><path d="M109.52 568.71C101.4 568.71 94.81 575.24 94.81 583.29C94.81 591.34 101.4 597.87 109.52 597.87C117.65 597.87 124.23 591.34 124.23 583.29C124.23 575.24 117.65 568.71 109.52 568.71Z" id="bpQJD8WaZ"></path><path d="M161.83 568.71C153.71 568.71 147.12 575.24 147.12 583.29C147.12 591.34 153.71 597.87 161.83 597.87C169.96 597.87 176.54 591.34 176.54 583.29C176.54 575.24 169.96 568.71 161.83 568.71Z" id="czafYNFeK"></path><path d="M214.96 568.71C206.83 568.71 200.25 575.24 200.25 583.29C200.25 591.34 206.83 597.87 214.96 597.87C223.08 597.87 229.67 591.34 229.67 583.29C229.67 575.24 223.08 568.71 214.96 568.71Z" id="ae5Q0PVKX"></path><path d="M267.27 568.71C259.14 568.71 252.56 575.24 252.56 583.29C252.56 591.34 259.14 597.87 267.27 597.87C275.39 597.87 281.98 591.34 281.98 583.29C281.98 575.24 275.39 568.71 267.27 568.71Z" id="i2WBLtNCrv"></path><path d="M320.39 568.71C312.27 568.71 305.68 575.24 305.68 583.29C305.68 591.34 312.27 597.87 320.39 597.87C328.52 597.87 335.11 591.34 335.11 583.29C335.11 575.24 328.52 568.71 320.39 568.71Z" id="cskilnDwq"></path><path d="M373.52 568.71C365.4 568.71 358.81 575.24 358.81 583.29C358.81 591.34 365.4 597.87 373.52 597.87C381.65 597.87 388.23 591.34 388.23 583.29C388.23 575.24 381.65 568.71 373.52 568.71Z" id="b2TpSpu1Bm"></path><path d="M425.83 568.71C417.7 568.71 411.12 575.24 411.12 583.29C411.12 591.34 417.7 597.87 425.83 597.87C433.95 597.87 440.54 591.34 440.54 583.29C440.54 575.24 433.95 568.71 425.83 568.71Z" id="a2xXdG2N2E"></path><path d="M478.96 568.71C470.83 568.71 464.24 575.24 464.24 583.29C464.24 591.34 470.83 597.87 478.96 597.87C487.08 597.87 493.67 591.34 493.67 583.29C493.67 575.24 487.08 568.71 478.96 568.71Z" id="dNgBoYf2N"></path><path d="M531.27 568.71C523.14 568.71 516.55 575.24 516.55 583.29C516.55 591.34 523.14 597.87 531.27 597.87C539.39 597.87 545.98 591.34 545.98 583.29C545.98 575.24 539.39 568.71 531.27 568.71Z" id="ak6qst5jM"></path><path d="M584.39 568.71C576.27 568.71 569.68 575.24 569.68 583.29C569.68 591.34 576.27 597.87 584.39 597.87C592.52 597.87 599.1 591.34 599.1 583.29C599.1 575.24 592.52 568.71 584.39 568.71Z" id="a6riIU61mv"></path><path d="M82.55 68.86C74.43 68.86 67.84 75.39 67.84 83.44C67.84 91.5 74.43 98.03 82.55 98.03C90.68 98.03 97.26 91.5 97.26 83.44C97.26 75.39 90.68 68.86 82.55 68.86Z" id="abtYcFSa1"></path><path d="M135.68 68.86C127.55 68.86 120.97 75.39 120.97 83.44C120.97 91.5 127.55 98.03 135.68 98.03C143.8 98.03 150.39 91.5 150.39 83.44C150.39 75.39 143.8 68.86 135.68 68.86Z" id="d6SXY3hdIw"></path><path d="M187.99 68.86C179.86 68.86 173.27 75.39 173.27 83.44C173.27 91.5 179.86 98.03 187.99 98.03C196.11 98.03 202.7 91.5 202.7 83.44C202.7 75.39 196.11 68.86 187.99 68.86Z" id="g1pdwkH7P3"></path><path d="M241.11 68.86C232.99 68.86 226.4 75.39 226.4 83.44C226.4 91.5 232.99 98.03 241.11 98.03C249.24 98.03 255.82 91.5 255.82 83.44C255.82 75.39 249.24 68.86 241.11 68.86Z" id="b2YamZVhtL"></path><path d="M294.24 68.86C286.11 68.86 279.53 75.39 279.53 83.44C279.53 91.5 286.11 98.03 294.24 98.03C302.36 98.03 308.95 91.5 308.95 83.44C308.95 75.39 302.36 68.86 294.24 68.86Z" id="b9xCN5a7Q"></path><path d="M346.55 68.86C338.42 68.86 331.84 75.39 331.84 83.44C331.84 91.5 338.42 98.03 346.55 98.03C354.67 98.03 361.26 91.5 361.26 83.44C361.26 75.39 354.67 68.86 346.55 68.86Z" id="h6dv7sF8Ls"></path><path d="M399.68 68.86C391.55 68.86 384.96 75.39 384.96 83.44C384.96 91.5 391.55 98.03 399.68 98.03C407.8 98.03 414.39 91.5 414.39 83.44C414.39 75.39 407.8 68.86 399.68 68.86Z" id="bfuEsBEjv"></path><path d="M451.98 68.86C443.86 68.86 437.27 75.39 437.27 83.44C437.27 91.5 443.86 98.03 451.98 98.03C460.11 98.03 466.7 91.5 466.7 83.44C466.7 75.39 460.11 68.86 451.98 68.86Z" id="f3K7obIulz"></path><path d="M505.11 68.86C496.99 68.86 490.4 75.39 490.4 83.44C490.4 91.5 496.99 98.03 505.11 98.03C513.24 98.03 519.82 91.5 519.82 83.44C519.82 75.39 513.24 68.86 505.11 68.86Z" id="b1g9pB46GG"></path><path d="M557.42 68.86C549.29 68.86 542.71 75.39 542.71 83.44C542.71 91.5 549.29 98.03 557.42 98.03C565.55 98.03 572.13 91.5 572.13 83.44C572.13 75.39 565.55 68.86 557.42 68.86Z" id="a19U7bbk2j"></path><path d="M82.55 121.52C74.43 121.52 67.84 128.05 67.84 136.1C67.84 144.15 74.43 150.68 82.55 150.68C90.68 150.68 97.26 144.15 97.26 136.1C97.26 128.05 90.68 121.52 82.55 121.52Z" id="ba4PTIXZL"></path><path d="M135.68 121.52C127.55 121.52 120.97 128.05 120.97 136.1C120.97 144.15 127.55 150.68 135.68 150.68C143.8 150.68 150.39 144.15 150.39 136.1C150.39 128.05 143.8 121.52 135.68 121.52Z" id="f1RnJW9qsY"></path><path d="M187.99 121.52C179.86 121.52 173.27 128.05 173.27 136.1C173.27 144.15 179.86 150.68 187.99 150.68C196.11 150.68 202.7 144.15 202.7 136.1C202.7 128.05 196.11 121.52 187.99 121.52Z" id="c1JepVNpxP"></path><path d="M241.11 121.52C232.99 121.52 226.4 128.05 226.4 136.1C226.4 144.15 232.99 150.68 241.11 150.68C249.24 150.68 255.82 144.15 255.82 136.1C255.82 128.05 249.24 121.52 241.11 121.52Z" id="a7oYuM0G4b"></path><path d="M294.24 121.52C286.11 121.52 279.53 128.05 279.53 136.1C279.53 144.15 286.11 150.68 294.24 150.68C302.36 150.68 308.95 144.15 308.95 136.1C308.95 128.05 302.36 121.52 294.24 121.52Z" id="hjhfwzRVb"></path><path d="M346.55 121.52C338.42 121.52 331.84 128.05 331.84 136.1C331.84 144.15 338.42 150.68 346.55 150.68C354.67 150.68 361.26 144.15 361.26 136.1C361.26 128.05 354.67 121.52 346.55 121.52Z" id="bbstxKqEf"></path><path d="M399.68 121.52C391.55 121.52 384.96 128.05 384.96 136.1C384.96 144.15 391.55 150.68 399.68 150.68C407.8 150.68 414.39 144.15 414.39 136.1C414.39 128.05 407.8 121.52 399.68 121.52Z" id="j46gu4PJid"></path><path d="M451.98 121.52C443.86 121.52 437.27 128.05 437.27 136.1C437.27 144.15 443.86 150.68 451.98 150.68C460.11 150.68 466.7 144.15 466.7 136.1C466.7 128.05 460.11 121.52 451.98 121.52Z" id="aDrX4E2CL"></path><path d="M505.11 121.52C496.99 121.52 490.4 128.05 490.4 136.1C490.4 144.15 496.99 150.68 505.11 150.68C513.24 150.68 519.82 144.15 519.82 136.1C519.82 128.05 513.24 121.52 505.11 121.52Z" id="b3b3yJQeM"></path><path d="M557.42 121.52C549.29 121.52 542.71 128.05 542.71 136.1C542.71 144.15 549.29 150.68 557.42 150.68C565.55 150.68 572.13 144.15 572.13 136.1C572.13 128.05 565.55 121.52 557.42 121.52Z" id="aGyCqpDLk"></path><path d="M82.55 174.18C74.43 174.18 67.84 180.71 67.84 188.76C67.84 196.81 74.43 203.34 82.55 203.34C90.68 203.34 97.26 196.81 97.26 188.76C97.26 180.71 90.68 174.18 82.55 174.18Z" id="dKJG2GT7G"></path><path d="M135.68 174.18C127.55 174.18 120.97 180.71 120.97 188.76C120.97 196.81 127.55 203.34 135.68 203.34C143.8 203.34 150.39 196.81 150.39 188.76C150.39 180.71 143.8 174.18 135.68 174.18Z" id="b3yYKYwsfZ"></path><path d="M505.11 174.18C496.99 174.18 490.4 180.71 490.4 188.76C490.4 196.81 496.99 203.34 505.11 203.34C513.24 203.34 519.82 196.81 519.82 188.76C519.82 180.71 513.24 174.18 505.11 174.18Z" id="c1OB5wvc9"></path><path d="M557.42 174.18C549.29 174.18 542.71 180.71 542.71 188.76C542.71 196.81 549.29 203.34 557.42 203.34C565.55 203.34 572.13 196.81 572.13 188.76C572.13 180.71 565.55 174.18 557.42 174.18Z" id="ciQnkE1Am"></path><path d="M82.55 226.84C74.43 226.84 67.84 233.36 67.84 241.42C67.84 249.47 74.43 256 82.55 256C90.68 256 97.26 249.47 97.26 241.42C97.26 233.36 90.68 226.84 82.55 226.84Z" id="b2lXjGxqtW"></path><path d="M135.68 226.84C127.55 226.84 120.97 233.36 120.97 241.42C120.97 249.47 127.55 256 135.68 256C143.8 256 150.39 249.47 150.39 241.42C150.39 233.36 143.8 226.84 135.68 226.84Z" id="e1lRIq3Weu"></path><path d="M505.11 226.84C496.99 226.84 490.4 233.36 490.4 241.42C490.4 249.47 496.99 256 505.11 256C513.24 256 519.82 249.47 519.82 241.42C519.82 233.36 513.24 226.84 505.11 226.84Z" id="b2ftK6qhA"></path><path d="M557.42 226.84C549.29 226.84 542.71 233.36 542.71 241.42C542.71 249.47 549.29 256 557.42 256C565.55 256 572.13 249.47 572.13 241.42C572.13 233.36 565.55 226.84 557.42 226.84Z" id="e1p38PmJmn"></path><path d="M82.55 278.68C74.43 278.68 67.84 285.21 67.84 293.27C67.84 301.32 74.43 307.85 82.55 307.85C90.68 307.85 97.26 301.32 97.26 293.27C97.26 285.21 90.68 278.68 82.55 278.68Z" id="d3x5SmcQmB"></path><path d="M135.68 278.68C127.55 278.68 120.97 285.21 120.97 293.27C120.97 301.32 127.55 307.85 135.68 307.85C143.8 307.85 150.39 301.32 150.39 293.27C150.39 285.21 143.8 278.68 135.68 278.68Z" id="gCfvRZJsn"></path><path d="M505.11 278.68C496.99 278.68 490.4 285.21 490.4 293.27C490.4 301.32 496.99 307.85 505.11 307.85C513.24 307.85 519.82 301.32 519.82 293.27C519.82 285.21 513.24 278.68 505.11 278.68Z" id="d1vitrZzn"></path><path d="M557.42 278.68C549.29 278.68 542.71 285.21 542.71 293.27C542.71 301.32 549.29 307.85 557.42 307.85C565.55 307.85 572.13 301.32 572.13 293.27C572.13 285.21 565.55 278.68 557.42 278.68Z" id="b4empvzqul"></path><path d="M82.55 331.34C74.43 331.34 67.84 337.87 67.84 345.92C67.84 353.98 74.43 360.51 82.55 360.51C90.68 360.51 97.26 353.98 97.26 345.92C97.26 337.87 90.68 331.34 82.55 331.34Z" id="gbUi3iMIA"></path><path d="M135.68 331.34C127.55 331.34 120.97 337.87 120.97 345.92C120.97 353.98 127.55 360.51 135.68 360.51C143.8 360.51 150.39 353.98 150.39 345.92C150.39 337.87 143.8 331.34 135.68 331.34Z" id="b3RxRl5YMb"></path><path d="M505.11 331.34C496.99 331.34 490.4 337.87 490.4 345.92C490.4 353.98 496.99 360.51 505.11 360.51C513.24 360.51 519.82 353.98 519.82 345.92C519.82 337.87 513.24 331.34 505.11 331.34Z" id="a5gJycdaNe"></path><path d="M557.42 331.34C549.29 331.34 542.71 337.87 542.71 345.92C542.71 353.98 549.29 360.51 557.42 360.51C565.55 360.51 572.13 353.98 572.13 345.92C572.13 337.87 565.55 331.34 557.42 331.34Z" id="c17BcAvNFt"></path><path d="M82.55 384C74.43 384 67.84 390.53 67.84 398.58C67.84 406.64 74.43 413.16 82.55 413.16C90.68 413.16 97.26 406.64 97.26 398.58C97.26 390.53 90.68 384 82.55 384Z" id="b1CP4jix93"></path><path d="M135.68 384C127.55 384 120.97 390.53 120.97 398.58C120.97 406.64 127.55 413.16 135.68 413.16C143.8 413.16 150.39 406.64 150.39 398.58C150.39 390.53 143.8 384 135.68 384Z" id="a1joj1vKLA"></path><path d="M505.11 384C496.99 384 490.4 390.53 490.4 398.58C490.4 406.64 496.99 413.16 505.11 413.16C513.24 413.16 519.82 406.64 519.82 398.58C519.82 390.53 513.24 384 505.11 384Z" id="a3h8j5n3yA"></path><path d="M557.42 384C549.29 384 542.71 390.53 542.71 398.58C542.71 406.64 549.29 413.16 557.42 413.16C565.55 413.16 572.13 406.64 572.13 398.58C572.13 390.53 565.55 384 557.42 384Z" id="b1WSElcJkG"></path><path d="M82.55 436.66C74.43 436.66 67.84 443.19 67.84 451.24C67.84 459.29 74.43 465.82 82.55 465.82C90.68 465.82 97.26 459.29 97.26 451.24C97.26 443.19 90.68 436.66 82.55 436.66Z" id="bqcMCveVR"></path><path d="M135.68 436.66C127.55 436.66 120.97 443.19 120.97 451.24C120.97 459.29 127.55 465.82 135.68 465.82C143.8 465.82 150.39 459.29 150.39 451.24C150.39 443.19 143.8 436.66 135.68 436.66Z" id="atU3YlyDl"></path><path d="M505.11 436.66C496.99 436.66 490.4 443.19 490.4 451.24C490.4 459.29 496.99 465.82 505.11 465.82C513.24 465.82 519.82 459.29 519.82 451.24C519.82 443.19 513.24 436.66 505.11 436.66Z" id="c2iaw8weQX"></path><path d="M557.42 436.66C549.29 436.66 542.71 443.19 542.71 451.24C542.71 459.29 549.29 465.82 557.42 465.82C565.55 465.82 572.13 459.29 572.13 451.24C572.13 443.19 565.55 436.66 557.42 436.66Z" id="b1wK53EIm2"></path><path d="M82.55 489.32C74.43 489.32 67.84 495.85 67.84 503.9C67.84 511.95 74.43 518.48 82.55 518.48C90.68 518.48 97.26 511.95 97.26 503.9C97.26 495.85 90.68 489.32 82.55 489.32Z" id="b3CBRkCSs6"></path><path d="M135.68 489.32C127.55 489.32 120.97 495.85 120.97 503.9C120.97 511.95 127.55 518.48 135.68 518.48C143.8 518.48 150.39 511.95 150.39 503.9C150.39 495.85 143.8 489.32 135.68 489.32Z" id="h3lsA8dXlS"></path><path d="M187.99 489.32C179.86 489.32 173.27 495.85 173.27 503.9C173.27 511.95 179.86 518.48 187.99 518.48C196.11 518.48 202.7 511.95 202.7 503.9C202.7 495.85 196.11 489.32 187.99 489.32Z" id="aNbcygBgS"></path><path d="M241.11 489.32C232.99 489.32 226.4 495.85 226.4 503.9C226.4 511.95 232.99 518.48 241.11 518.48C249.24 518.48 255.82 511.95 255.82 503.9C255.82 495.85 249.24 489.32 241.11 489.32Z" id="a4Hb2gdQGK"></path><path d="M294.24 489.32C286.11 489.32 279.53 495.85 279.53 503.9C279.53 511.95 286.11 518.48 294.24 518.48C302.36 518.48 308.95 511.95 308.95 503.9C308.95 495.85 302.36 489.32 294.24 489.32Z" id="d2J3rrplfQ"></path><path d="M346.55 489.32C338.42 489.32 331.84 495.85 331.84 503.9C331.84 511.95 338.42 518.48 346.55 518.48C354.67 518.48 361.26 511.95 361.26 503.9C361.26 495.85 354.67 489.32 346.55 489.32Z" id="azrT6zAT5"></path><path d="M399.68 489.32C391.55 489.32 384.96 495.85 384.96 503.9C384.96 511.95 391.55 518.48 399.68 518.48C407.8 518.48 414.39 511.95 414.39 503.9C414.39 495.85 407.8 489.32 399.68 489.32Z" id="c5rNrR0YL6"></path><path d="M451.98 489.32C443.86 489.32 437.27 495.85 437.27 503.9C437.27 511.95 443.86 518.48 451.98 518.48C460.11 518.48 466.7 511.95 466.7 503.9C466.7 495.85 460.11 489.32 451.98 489.32Z" id="a8cVpk6iU"></path><path d="M505.11 489.32C496.99 489.32 490.4 495.85 490.4 503.9C490.4 511.95 496.99 518.48 505.11 518.48C513.24 518.48 519.82 511.95 519.82 503.9C519.82 495.85 513.24 489.32 505.11 489.32Z" id="b40Dt5LKXN"></path><path d="M557.42 489.32C549.29 489.32 542.71 495.85 542.71 503.9C542.71 511.95 549.29 518.48 557.42 518.48C565.55 518.48 572.13 511.95 572.13 503.9C572.13 495.85 565.55 489.32 557.42 489.32Z" id="a59wza9svl"></path><path d="M82.55 541.97C74.43 541.97 67.84 548.5 67.84 556.56C67.84 564.61 74.43 571.14 82.55 571.14C90.68 571.14 97.26 564.61 97.26 556.56C97.26 548.5 90.68 541.97 82.55 541.97Z" id="a3JCchykgL"></path><path d="M135.68 541.97C127.55 541.97 120.97 548.5 120.97 556.56C120.97 564.61 127.55 571.14 135.68 571.14C143.8 571.14 150.39 564.61 150.39 556.56C150.39 548.5 143.8 541.97 135.68 541.97Z" id="b1R0JKOnQ"></path><path d="M187.99 541.97C179.86 541.97 173.27 548.5 173.27 556.56C173.27 564.61 179.86 571.14 187.99 571.14C196.11 571.14 202.7 564.61 202.7 556.56C202.7 548.5 196.11 541.97 187.99 541.97Z" id="a1RW5KswB2"></path><path d="M241.11 541.97C232.99 541.97 226.4 548.5 226.4 556.56C226.4 564.61 232.99 571.14 241.11 571.14C249.24 571.14 255.82 564.61 255.82 556.56C255.82 548.5 249.24 541.97 241.11 541.97Z" id="alNiRAs3j"></path><path d="M294.24 541.97C286.11 541.97 279.53 548.5 279.53 556.56C279.53 564.61 286.11 571.14 294.24 571.14C302.36 571.14 308.95 564.61 308.95 556.56C308.95 548.5 302.36 541.97 294.24 541.97Z" id="gp0zl4pGc"></path><path d="M346.55 541.97C338.42 541.97 331.84 548.5 331.84 556.56C331.84 564.61 338.42 571.14 346.55 571.14C354.67 571.14 361.26 564.61 361.26 556.56C361.26 548.5 354.67 541.97 346.55 541.97Z" id="c8PzKbXTe"></path><path d="M399.68 541.97C391.55 541.97 384.96 548.5 384.96 556.56C384.96 564.61 391.55 571.14 399.68 571.14C407.8 571.14 414.39 564.61 414.39 556.56C414.39 548.5 407.8 541.97 399.68 541.97Z" id="f1ue8EZQAg"></path><path d="M451.98 541.97C443.86 541.97 437.27 548.5 437.27 556.56C437.27 564.61 443.86 571.14 451.98 571.14C460.11 571.14 466.7 564.61 466.7 556.56C466.7 548.5 460.11 541.97 451.98 541.97Z" id="b1BaKgBKUT"></path><path d="M505.11 541.97C496.99 541.97 490.4 548.5 490.4 556.56C490.4 564.61 496.99 571.14 505.11 571.14C513.24 571.14 519.82 564.61 519.82 556.56C519.82 548.5 513.24 541.97 505.11 541.97Z" id="h1VeVgHlAc"></path><path d="M557.42 541.97C549.29 541.97 542.71 548.5 542.71 556.56C542.71 564.61 549.29 571.14 557.42 571.14C565.55 571.14 572.13 564.61 572.13 556.56C572.13 548.5 565.55 541.97 557.42 541.97Z" id="a5AEJtuqL"></path></defs><g><g><g><use xlink:href="#bdMeyCZQr" opacity="1" fill="#c5c3c6" fill-opacity="1"></use><g><use xlink:href="#bdMeyCZQr" opacity="1" fill-opacity="0" stroke="#000000" stroke-width="1" stroke-opacity="0"></use></g></g><g><use xlink:href="#b3ynILVTHv" opacity="1" fill="#c5c3c6" fill-opacity="1"></use><g><use xlink:href="#b3ynILVTHv" opacity="1" fill-opacity="0" stroke="#000000" stroke-width="1" stroke-opacity="0"></use></g></g><g><use xlink:href="#mftRoHP7y" opacity="1" fill="#c5c3c6" fill-opacity="1"></use><g><use xlink:href="#mftRoHP7y" opacity="1" fill-opacity="0" stroke="#000000" stroke-width="1" stroke-opacity="0"></use></g></g><g><use xlink:href="#c7P1BnIMW" opacity="1" fill="#c5c3c6" fill-opacity="1"></use><g><use xlink:href="#c7P1BnIMW" opacity="1" fill-opacity="0" stroke="#000000" stroke-width="1" stroke-opacity="0"></use></g></g><g><use xlink:href="#a1r91qyRt" opacity="1" fill="#c5c3c6" fill-opacity="1"></use><g><use xlink:href="#a1r91qyRt" opacity="1" fill-opacity="0" stroke="#000000" stroke-width="1" stroke-opacity="0"></use></g></g><g><use xlink:href="#cnHpG9RRT" opacity="1" fill="#c5c3c6" fill-opacity="1"></use><g><use xlink:href="#cnHpG9RRT" opacity="1" fill-opacity="0" stroke="#000000" stroke-width="1" stroke-opacity="0"></use></g></g><g><use xlink:href="#b2BZeMONk" opacity="1" fill="#c5c3c6" fill-opacity="1"></use><g><use xlink:href="#b2BZeMONk" opacity="1" fill-opacity="0" stroke="#000000" stroke-width="1" stroke-opacity="0"></use></g></g><g><use xlink:href="#igIdfhwKE" opacity="1" fill="#c5c3c6" fill-opacity="1"></use><g><use xlink:href="#igIdfhwKE" opacity="1" fill-opacity="0" stroke="#000000" stroke-width="1" stroke-opacity="0"></use></g></g><g><use xlink:href="#b3TDSuolxk" opacity="1" fill="#c5c3c6" fill-opacity="1"></use><g><use xlink:href="#b3TDSuolxk" opacity="1" fill-opacity="0" stroke="#000000" stroke-width="1" stroke-opacity="0"></use></g></g><g><use xlink:href="#b1jUpDaX0c" opacity="1" fill="#c5c3c6" fill-opacity="1"></use><g><use xlink:href="#b1jUpDaX0c" opacity="1" fill-opacity="0" stroke="#000000" stroke-width="1" stroke-opacity="0"></use></g></g><g><use xlink:href="#a1jxrK4HHu" opacity="1" fill="#c5c3c6" fill-opacity="1"></use><g><use xlink:href="#a1jxrK4HHu" opacity="1" fill-opacity="0" stroke="#000000" stroke-width="1" stroke-opacity="0"></use></g></g><g><use xlink:href="#eB2Yvf8Ue" opacity="1" fill="#c5c3c6" fill-opacity="1"></use><g><use xlink:href="#eB2Yvf8Ue" opacity="1" fill-opacity="0" stroke="#000000" stroke-width="1" stroke-opacity="0"></use></g></g><g><use xlink:href="#c2E0Tm1psT" opacity="1" fill="#c5c3c6" fill-opacity="1"></use><g><use xlink:href="#c2E0Tm1psT" opacity="1" fill-opacity="0" stroke="#000000" stroke-width="1" stroke-opacity="0"></use></g></g><g><use xlink:href="#a2pHFzmflZ" opacity="1" fill="#c5c3c6" fill-opacity="1"></use><g><use xlink:href="#a2pHFzmflZ" opacity="1" fill-opacity="0" stroke="#000000" stroke-width="1" stroke-opacity="0"></use></g></g><g><use xlink:href="#axQtxyOY7" opacity="1" fill="#c5c3c6" fill-opacity="1"></use><g><use xlink:href="#axQtxyOY7" opacity="1" fill-opacity="0" stroke="#000000" stroke-width="1" stroke-opacity="0"></use></g></g><g><use xlink:href="#f17Hl0ajuE" opacity="1" fill="#c5c3c6" fill-opacity="1"></use><g><use xlink:href="#f17Hl0ajuE" opacity="1" fill-opacity="0" stroke="#000000" stroke-width="1" stroke-opacity="0"></use></g></g><g><use xlink:href="#bk7BuSKT8" opacity="1" fill="#c5c3c6" fill-opacity="1"></use><g><use xlink:href="#bk7BuSKT8" opacity="1" fill-opacity="0" stroke="#000000" stroke-width="1" stroke-opacity="0"></use></g></g><g><use xlink:href="#i7bKwPEpqD" opacity="1" fill="#c5c3c6" fill-opacity="1"></use><g><use xlink:href="#i7bKwPEpqD" opacity="1" fill-opacity="0" stroke="#000000" stroke-width="1" stroke-opacity="0"></use></g></g><g><use xlink:href="#dv6uU3hF4" opacity="1" fill="#c5c3c6" fill-opacity="1"></use><g><use xlink:href="#dv6uU3hF4" opacity="1" fill-opacity="0" stroke="#000000" stroke-width="1" stroke-opacity="0"></use></g></g><g><use xlink:href="#d1m1IVaaA7" opacity="1" fill="#c5c3c6" fill-opacity="1"></use><g><use xlink:href="#d1m1IVaaA7" opacity="1" fill-opacity="0" stroke="#000000" stroke-width="1" stroke-opacity="0"></use></g></g><g><use xlink:href="#acombDPQ5" opacity="1" fill="#c5c3c6" fill-opacity="1"></use><g><use xlink:href="#acombDPQ5" opacity="1" fill-opacity="0" stroke="#000000" stroke-width="1" stroke-opacity="0"></use></g></g><g><use xlink:href="#b1RTjGFnDi" opacity="1" fill="#c5c3c6" fill-opacity="1"></use><g><use xlink:href="#b1RTjGFnDi" opacity="1" fill-opacity="0" stroke="#000000" stroke-width="1" stroke-opacity="0"></use></g></g><g><use xlink:href="#a4rMw0fHXA" opacity="1" fill="#c5c3c6" fill-opacity="1"></use><g><use xlink:href="#a4rMw0fHXA" opacity="1" fill-opacity="0" stroke="#000000" stroke-width="1" stroke-opacity="0"></use></g></g><g><use xlink:href="#aaH5fRR8mm" opacity="1" fill="#c5c3c6" fill-opacity="1"></use><g><use xlink:href="#aaH5fRR8mm" opacity="1" fill-opacity="0" stroke="#000000" stroke-width="1" stroke-opacity="0"></use></g></g><g><use xlink:href="#c5dqsrdfPD" opacity="1" fill="#c5c3c6" fill-opacity="1"></use><g><use xlink:href="#c5dqsrdfPD" opacity="1" fill-opacity="0" stroke="#000000" stroke-width="1" stroke-opacity="0"></use></g></g><g><use xlink:href="#e2QxxC5KwU" opacity="1" fill="#c5c3c6" fill-opacity="1"></use><g><use xlink:href="#e2QxxC5KwU" opacity="1" fill-opacity="0" stroke="#000000" stroke-width="1" stroke-opacity="0"></use></g></g><g><use xlink:href="#b9zCnhiilF" opacity="1" fill="#c5c3c6" fill-opacity="1"></use><g><use xlink:href="#b9zCnhiilF" opacity="1" fill-opacity="0" stroke="#000000" stroke-width="1" stroke-opacity="0"></use></g></g><g><use xlink:href="#a4hcBrC0y" opacity="1" fill="#c5c3c6" fill-opacity="1"></use><g><use xlink:href="#a4hcBrC0y" opacity="1" fill-opacity="0" stroke="#000000" stroke-width="1" stroke-opacity="0"></use></g></g><g><use xlink:href="#a2bQyKyIcR" opacity="1" fill="#c5c3c6" fill-opacity="1"></use><g><use xlink:href="#a2bQyKyIcR" opacity="1" fill-opacity="0" stroke="#000000" stroke-width="1" stroke-opacity="0"></use></g></g><g><use xlink:href="#a1tGCRrfR" opacity="1" fill="#c5c3c6" fill-opacity="1"></use><g><use xlink:href="#a1tGCRrfR" opacity="1" fill-opacity="0" stroke="#000000" stroke-width="1" stroke-opacity="0"></use></g></g><g><use xlink:href="#axI8dnJXQ" opacity="1" fill="#c5c3c6" fill-opacity="1"></use><g><use xlink:href="#axI8dnJXQ" opacity="1" fill-opacity="0" stroke="#000000" stroke-width="1" stroke-opacity="0"></use></g></g><g><use xlink:href="#b3Mx92yyZ" opacity="1" fill="#c5c3c6" fill-opacity="1"></use><g><use xlink:href="#b3Mx92yyZ" opacity="1" fill-opacity="0" stroke="#000000" stroke-width="1" stroke-opacity="0"></use></g></g><g><use xlink:href="#c8BFoMtvMB" opacity="1" fill="#c5c3c6" fill-opacity="1"></use><g><use xlink:href="#c8BFoMtvMB" opacity="1" fill-opacity="0" stroke="#000000" stroke-width="1" stroke-opacity="0"></use></g></g><g><use xlink:href="#a99c0QDqs" opacity="1" fill="#c5c3c6" fill-opacity="1"></use><g><use xlink:href="#a99c0QDqs" opacity="1" fill-opacity="0" stroke="#000000" stroke-width="1" stroke-opacity="0"></use></g></g><g><use xlink:href="#a66e6pRDUx" opacity="1" fill="#c5c3c6" fill-opacity="1"></use><g><use xlink:href="#a66e6pRDUx" opacity="1" fill-opacity="0" stroke="#000000" stroke-width="1" stroke-opacity="0"></use></g></g><g><use xlink:href="#a8PAlYSkCH" opacity="1" fill="#c5c3c6" fill-opacity="1"></use><g><use xlink:href="#a8PAlYSkCH" opacity="1" fill-opacity="0" stroke="#000000" stroke-width="1" stroke-opacity="0"></use></g></g><g><use xlink:href="#anRndjfL5" opacity="1" fill="#c5c3c6" fill-opacity="1"></use><g><use xlink:href="#anRndjfL5" opacity="1" fill-opacity="0" stroke="#000000" stroke-width="1" stroke-opacity="0"></use></g></g><g><use xlink:href="#f3d2QXU5nG" opacity="1" fill="#c5c3c6" fill-opacity="1"></use><g><use xlink:href="#f3d2QXU5nG" opacity="1" fill-opacity="0" stroke="#000000" stroke-width="1" stroke-opacity="0"></use></g></g><g><use xlink:href="#cfIb6Bspb" opacity="1" fill="#c5c3c6" fill-opacity="1"></use><g><use xlink:href="#cfIb6Bspb" opacity="1" fill-opacity="0" stroke="#000000" stroke-width="1" stroke-opacity="0"></use></g></g><g><use xlink:href="#b2lmLjM15u" opacity="1" fill="#c5c3c6" fill-opacity="1"></use><g><use xlink:href="#b2lmLjM15u" opacity="1" fill-opacity="0" stroke="#000000" stroke-width="1" stroke-opacity="0"></use></g></g><g><use xlink:href="#c6eGUWOm8" opacity="1" fill="#c5c3c6" fill-opacity="1"></use><g><use xlink:href="#c6eGUWOm8" opacity="1" fill-opacity="0" stroke="#000000" stroke-width="1" stroke-opacity="0"></use></g></g><g><use xlink:href="#b13yrFt3hw" opacity="1" fill="#c5c3c6" fill-opacity="1"></use><g><use xlink:href="#b13yrFt3hw" opacity="1" fill-opacity="0" stroke="#000000" stroke-width="1" stroke-opacity="0"></use></g></g><g><use xlink:href="#a2Pz0CuJOr" opacity="1" fill="#c5c3c6" fill-opacity="1"></use><g><use xlink:href="#a2Pz0CuJOr" opacity="1" fill-opacity="0" stroke="#000000" stroke-width="1" stroke-opacity="0"></use></g></g><g><use xlink:href="#bAuqVv8hL" opacity="1" fill="#c5c3c6" fill-opacity="1"></use><g><use xlink:href="#bAuqVv8hL" opacity="1" fill-opacity="0" stroke="#000000" stroke-width="1" stroke-opacity="0"></use></g></g><g><use xlink:href="#c2zzCVD7Y5" opacity="1" fill="#c5c3c6" fill-opacity="1"></use><g><use xlink:href="#c2zzCVD7Y5" opacity="1" fill-opacity="0" stroke="#000000" stroke-width="1" stroke-opacity="0"></use></g></g><g><use xlink:href="#a18VWLEuIF" opacity="1" fill="#c5c3c6" fill-opacity="1"></use><g><use xlink:href="#a18VWLEuIF" opacity="1" fill-opacity="0" stroke="#000000" stroke-width="1" stroke-opacity="0"></use></g></g><g><use xlink:href="#bi95ZRDvf" opacity="1" fill="#c5c3c6" fill-opacity="1"></use><g><use xlink:href="#bi95ZRDvf" opacity="1" fill-opacity="0" stroke="#000000" stroke-width="1" stroke-opacity="0"></use></g></g><g><use xlink:href="#a4QibPC68V" opacity="1" fill="#c5c3c6" fill-opacity="1"></use><g><use xlink:href="#a4QibPC68V" opacity="1" fill-opacity="0" stroke="#000000" stroke-width="1" stroke-opacity="0"></use></g></g><g><use xlink:href="#aRNyFbSWL" opacity="1" fill="#c5c3c6" fill-opacity="1"></use><g><use xlink:href="#aRNyFbSWL" opacity="1" fill-opacity="0" stroke="#000000" stroke-width="1" stroke-opacity="0"></use></g></g><g><use xlink:href="#aoEw4HypJ" opacity="1" fill="#c5c3c6" fill-opacity="1"></use><g><use xlink:href="#aoEw4HypJ" opacity="1" fill-opacity="0" stroke="#000000" stroke-width="1" stroke-opacity="0"></use></g></g><g><use xlink:href="#cxaSjbivD" opacity="1" fill="#c5c3c6" fill-opacity="1"></use><g><use xlink:href="#cxaSjbivD" opacity="1" fill-opacity="0" stroke="#000000" stroke-width="1" stroke-opacity="0"></use></g></g><g><use xlink:href="#h1DHE2vq5p" opacity="1" fill="#c5c3c6" fill-opacity="1"></use><g><use xlink:href="#h1DHE2vq5p" opacity="1" fill-opacity="0" stroke="#000000" stroke-width="1" stroke-opacity="0"></use></g></g><g><use xlink:href="#a3t7oPeB8" opacity="1" fill="#c5c3c6" fill-opacity="1"></use><g><use xlink:href="#a3t7oPeB8" opacity="1" fill-opacity="0" stroke="#000000" stroke-width="1" stroke-opacity="0"></use></g></g><g><use xlink:href="#dR8vaVpz9" opacity="1" fill="#c5c3c6" fill-opacity="1"></use><g><use xlink:href="#dR8vaVpz9" opacity="1" fill-opacity="0" stroke="#000000" stroke-width="1" stroke-opacity="0"></use></g></g><g><use xlink:href="#gYrXa000P" opacity="1" fill="#c5c3c6" fill-opacity="1"></use><g><use xlink:href="#gYrXa000P" opacity="1" fill-opacity="0" stroke="#000000" stroke-width="1" stroke-opacity="0"></use></g></g><g><use xlink:href="#dGjoUTSMk" opacity="1" fill="#c5c3c6" fill-opacity="1"></use><g><use xlink:href="#dGjoUTSMk" opacity="1" fill-opacity="0" stroke="#000000" stroke-width="1" stroke-opacity="0"></use></g></g><g><use xlink:href="#d6yMOUJgGP" opacity="1" fill="#c5c3c6" fill-opacity="1"></use><g><use xlink:href="#d6yMOUJgGP" opacity="1" fill-opacity="0" stroke="#000000" stroke-width="1" stroke-opacity="0"></use></g></g><g><use xlink:href="#b2dsTE3LO5" opacity="1" fill="#c5c3c6" fill-opacity="1"></use><g><use xlink:href="#b2dsTE3LO5" opacity="1" fill-opacity="0" stroke="#000000" stroke-width="1" stroke-opacity="0"></use></g></g><g><use xlink:href="#asxBEadZK" opacity="1" fill="#c5c3c6" fill-opacity="1"></use><g><use xlink:href="#asxBEadZK" opacity="1" fill-opacity="0" stroke="#000000" stroke-width="1" stroke-opacity="0"></use></g></g><g><use xlink:href="#b4iUSGJ0NX" opacity="1" fill="#c5c3c6" fill-opacity="1"></use><g><use xlink:href="#b4iUSGJ0NX" opacity="1" fill-opacity="0" stroke="#000000" stroke-width="1" stroke-opacity="0"></use></g></g><g><use xlink:href="#aCuwFr6f4" opacity="1" fill="#c5c3c6" fill-opacity="1"></use><g><use xlink:href="#aCuwFr6f4" opacity="1" fill-opacity="0" stroke="#000000" stroke-width="1" stroke-opacity="0"></use></g></g><g><use xlink:href="#b3XjhGzAm" opacity="1" fill="#c5c3c6" fill-opacity="1"></use><g><use xlink:href="#b3XjhGzAm" opacity="1" fill-opacity="0" stroke="#000000" stroke-width="1" stroke-opacity="0"></use></g></g><g><use xlink:href="#a3jmqaRZKl" opacity="1" fill="#c5c3c6" fill-opacity="1"></use><g><use xlink:href="#a3jmqaRZKl" opacity="1" fill-opacity="0" stroke="#000000" stroke-width="1" stroke-opacity="0"></use></g></g><g><use xlink:href="#fkNOvv1FM" opacity="1" fill="#c5c3c6" fill-opacity="1"></use><g><use xlink:href="#fkNOvv1FM" opacity="1" fill-opacity="0" stroke="#000000" stroke-width="1" stroke-opacity="0"></use></g></g><g><use xlink:href="#a1488sjj3X" opacity="1" fill="#c5c3c6" fill-opacity="1"></use><g><use xlink:href="#a1488sjj3X" opacity="1" fill-opacity="0" stroke="#000000" stroke-width="1" stroke-opacity="0"></use></g></g><g><use xlink:href="#c3Ukm3txWd" opacity="1" fill="#c5c3c6" fill-opacity="1"></use><g><use xlink:href="#c3Ukm3txWd" opacity="1" fill-opacity="0" stroke="#000000" stroke-width="1" stroke-opacity="0"></use></g></g><g><use xlink:href="#c1qyehJStg" opacity="1" fill="#c5c3c6" fill-opacity="1"></use><g><use xlink:href="#c1qyehJStg" opacity="1" fill-opacity="0" stroke="#000000" stroke-width="1" stroke-opacity="0"></use></g></g><g><use xlink:href="#alLGw7p9i" opacity="1" fill="#c5c3c6" fill-opacity="1"></use><g><use xlink:href="#alLGw7p9i" opacity="1" fill-opacity="0" stroke="#000000" stroke-width="1" stroke-opacity="0"></use></g></g><g><use xlink:href="#efrh93GFu" opacity="1" fill="#c5c3c6" fill-opacity="1"></use><g><use xlink:href="#efrh93GFu" opacity="1" fill-opacity="0" stroke="#000000" stroke-width="1" stroke-opacity="0"></use></g></g><g><use xlink:href="#krsaP43Lv" opacity="1" fill="#c5c3c6" fill-opacity="1"></use><g><use xlink:href="#krsaP43Lv" opacity="1" fill-opacity="0" stroke="#000000" stroke-width="1" stroke-opacity="0"></use></g></g><g><use xlink:href="#caoxDC6GSl" opacity="1" fill="#c5c3c6" fill-opacity="1"></use><g><use xlink:href="#caoxDC6GSl" opacity="1" fill-opacity="0" stroke="#000000" stroke-width="1" stroke-opacity="0"></use></g></g><g><use xlink:href="#c2HGxR8fsy" opacity="1" fill="#c5c3c6" fill-opacity="1"></use><g><use xlink:href="#c2HGxR8fsy" opacity="1" fill-opacity="0" stroke="#000000" stroke-width="1" stroke-opacity="0"></use></g></g><g><use xlink:href="#a1pOzCIjpL" opacity="1" fill="#c5c3c6" fill-opacity="1"></use><g><use xlink:href="#a1pOzCIjpL" opacity="1" fill-opacity="0" stroke="#000000" stroke-width="1" stroke-opacity="0"></use></g></g><g><use xlink:href="#i39gD9UCkE" opacity="1" fill="#c5c3c6" fill-opacity="1"></use><g><use xlink:href="#i39gD9UCkE" opacity="1" fill-opacity="0" stroke="#000000" stroke-width="1" stroke-opacity="0"></use></g></g><g><use xlink:href="#g6rpEKqtr" opacity="1" fill="#c5c3c6" fill-opacity="1"></use><g><use xlink:href="#g6rpEKqtr" opacity="1" fill-opacity="0" stroke="#000000" stroke-width="1" stroke-opacity="0"></use></g></g><g><use xlink:href="#crv2N0Xi" opacity="1" fill="#c5c3c6" fill-opacity="1"></use><g><use xlink:href="#crv2N0Xi" opacity="1" fill-opacity="0" stroke="#000000" stroke-width="1" stroke-opacity="0"></use></g></g><g><use xlink:href="#b4DHQkge87" opacity="1" fill="#c5c3c6" fill-opacity="1"></use><g><use xlink:href="#b4DHQkge87" opacity="1" fill-opacity="0" stroke="#000000" stroke-width="1" stroke-opacity="0"></use></g></g><g><use xlink:href="#b1qAPaGptE" opacity="1" fill="#c5c3c6" fill-opacity="1"></use><g><use xlink:href="#b1qAPaGptE" opacity="1" fill-opacity="0" stroke="#000000" stroke-width="1" stroke-opacity="0"></use></g></g><g><use xlink:href="#c4T0RdxkW" opacity="1" fill="#c5c3c6" fill-opacity="1"></use><g><use xlink:href="#c4T0RdxkW" opacity="1" fill-opacity="0" stroke="#000000" stroke-width="1" stroke-opacity="0"></use></g></g><g><use xlink:href="#a8p6mmo81" opacity="1" fill="#c5c3c6" fill-opacity="1"></use><g><use xlink:href="#a8p6mmo81" opacity="1" fill-opacity="0" stroke="#000000" stroke-width="1" stroke-opacity="0"></use></g></g><g><use xlink:href="#e4EFaOh1sX" opacity="1" fill="#c5c3c6" fill-opacity="1"></use><g><use xlink:href="#e4EFaOh1sX" opacity="1" fill-opacity="0" stroke="#000000" stroke-width="1" stroke-opacity="0"></use></g></g><g><use xlink:href="#bqmvq0yMj" opacity="1" fill="#c5c3c6" fill-opacity="1"></use><g><use xlink:href="#bqmvq0yMj" opacity="1" fill-opacity="0" stroke="#000000" stroke-width="1" stroke-opacity="0"></use></g></g><g><use xlink:href="#e51hmTUGIy" opacity="1" fill="#c5c3c6" fill-opacity="1"></use><g><use xlink:href="#e51hmTUGIy" opacity="1" fill-opacity="0" stroke="#000000" stroke-width="1" stroke-opacity="0"></use></g></g><g><use xlink:href="#a1bJkyCF2I" opacity="1" fill="#c5c3c6" fill-opacity="1"></use><g><use xlink:href="#a1bJkyCF2I" opacity="1" fill-opacity="0" stroke="#000000" stroke-width="1" stroke-opacity="0"></use></g></g><g><use xlink:href="#e6J5DpTSZ7" opacity="1" fill="#c5c3c6" fill-opacity="1"></use><g><use xlink:href="#e6J5DpTSZ7" opacity="1" fill-opacity="0" stroke="#000000" stroke-width="1" stroke-opacity="0"></use></g></g><g><use xlink:href="#a1Gfw7XEld" opacity="1" fill="#c5c3c6" fill-opacity="1"></use><g><use xlink:href="#a1Gfw7XEld" opacity="1" fill-opacity="0" stroke="#000000" stroke-width="1" stroke-opacity="0"></use></g></g><g><use xlink:href="#cmBJPDKVy" opacity="1" fill="#c5c3c6" fill-opacity="1"></use><g><use xlink:href="#cmBJPDKVy" opacity="1" fill-opacity="0" stroke="#000000" stroke-width="1" stroke-opacity="0"></use></g></g><g><use xlink:href="#ejOimpFMq" opacity="1" fill="#c5c3c6" fill-opacity="1"></use><g><use xlink:href="#ejOimpFMq" opacity="1" fill-opacity="0" stroke="#000000" stroke-width="1" stroke-opacity="0"></use></g></g><g><use xlink:href="#bpQJD8WaZ" opacity="1" fill="#c5c3c6" fill-opacity="1"></use><g><use xlink:href="#bpQJD8WaZ" opacity="1" fill-opacity="0" stroke="#000000" stroke-width="1" stroke-opacity="0"></use></g></g><g><use xlink:href="#czafYNFeK" opacity="1" fill="#c5c3c6" fill-opacity="1"></use><g><use xlink:href="#czafYNFeK" opacity="1" fill-opacity="0" stroke="#000000" stroke-width="1" stroke-opacity="0"></use></g></g><g><use xlink:href="#ae5Q0PVKX" opacity="1" fill="#c5c3c6" fill-opacity="1"></use><g><use xlink:href="#ae5Q0PVKX" opacity="1" fill-opacity="0" stroke="#000000" stroke-width="1" stroke-opacity="0"></use></g></g><g><use xlink:href="#i2WBLtNCrv" opacity="1" fill="#c5c3c6" fill-opacity="1"></use><g><use xlink:href="#i2WBLtNCrv" opacity="1" fill-opacity="0" stroke="#000000" stroke-width="1" stroke-opacity="0"></use></g></g><g><use xlink:href="#cskilnDwq" opacity="1" fill="#c5c3c6" fill-opacity="1"></use><g><use xlink:href="#cskilnDwq" opacity="1" fill-opacity="0" stroke="#000000" stroke-width="1" stroke-opacity="0"></use></g></g><g><use xlink:href="#b2TpSpu1Bm" opacity="1" fill="#c5c3c6" fill-opacity="1"></use><g><use xlink:href="#b2TpSpu1Bm" opacity="1" fill-opacity="0" stroke="#000000" stroke-width="1" stroke-opacity="0"></use></g></g><g><use xlink:href="#a2xXdG2N2E" opacity="1" fill="#c5c3c6" fill-opacity="1"></use><g><use xlink:href="#a2xXdG2N2E" opacity="1" fill-opacity="0" stroke="#000000" stroke-width="1" stroke-opacity="0"></use></g></g><g><use xlink:href="#dNgBoYf2N" opacity="1" fill="#c5c3c6" fill-opacity="1"></use><g><use xlink:href="#dNgBoYf2N" opacity="1" fill-opacity="0" stroke="#000000" stroke-width="1" stroke-opacity="0"></use></g></g><g><use xlink:href="#ak6qst5jM" opacity="1" fill="#c5c3c6" fill-opacity="1"></use><g><use xlink:href="#ak6qst5jM" opacity="1" fill-opacity="0" stroke="#000000" stroke-width="1" stroke-opacity="0"></use></g></g><g><use xlink:href="#a6riIU61mv" opacity="1" fill="#c5c3c6" fill-opacity="1"></use><g><use xlink:href="#a6riIU61mv" opacity="1" fill-opacity="0" stroke="#000000" stroke-width="1" stroke-opacity="0"></use></g></g><g><use xlink:href="#abtYcFSa1" opacity="1" fill="#c5c3c6" fill-opacity="1"></use><g><use xlink:href="#abtYcFSa1" opacity="1" fill-opacity="0" stroke="#000000" stroke-width="1" stroke-opacity="0"></use></g></g><g><use xlink:href="#d6SXY3hdIw" opacity="1" fill="#c5c3c6" fill-opacity="1"></use><g><use xlink:href="#d6SXY3hdIw" opacity="1" fill-opacity="0" stroke="#000000" stroke-width="1" stroke-opacity="0"></use></g></g><g><use xlink:href="#g1pdwkH7P3" opacity="1" fill="#c5c3c6" fill-opacity="1"></use><g><use xlink:href="#g1pdwkH7P3" opacity="1" fill-opacity="0" stroke="#000000" stroke-width="1" stroke-opacity="0"></use></g></g><g><use xlink:href="#b2YamZVhtL" opacity="1" fill="#c5c3c6" fill-opacity="1"></use><g><use xlink:href="#b2YamZVhtL" opacity="1" fill-opacity="0" stroke="#000000" stroke-width="1" stroke-opacity="0"></use></g></g><g><use xlink:href="#b9xCN5a7Q" opacity="1" fill="#c5c3c6" fill-opacity="1"></use><g><use xlink:href="#b9xCN5a7Q" opacity="1" fill-opacity="0" stroke="#000000" stroke-width="1" stroke-opacity="0"></use></g></g><g><use xlink:href="#h6dv7sF8Ls" opacity="1" fill="#c5c3c6" fill-opacity="1"></use><g><use xlink:href="#h6dv7sF8Ls" opacity="1" fill-opacity="0" stroke="#000000" stroke-width="1" stroke-opacity="0"></use></g></g><g><use xlink:href="#bfuEsBEjv" opacity="1" fill="#c5c3c6" fill-opacity="1"></use><g><use xlink:href="#bfuEsBEjv" opacity="1" fill-opacity="0" stroke="#000000" stroke-width="1" stroke-opacity="0"></use></g></g><g><use xlink:href="#f3K7obIulz" opacity="1" fill="#c5c3c6" fill-opacity="1"></use><g><use xlink:href="#f3K7obIulz" opacity="1" fill-opacity="0" stroke="#000000" stroke-width="1" stroke-opacity="0"></use></g></g><g><use xlink:href="#b1g9pB46GG" opacity="1" fill="#c5c3c6" fill-opacity="1"></use><g><use xlink:href="#b1g9pB46GG" opacity="1" fill-opacity="0" stroke="#000000" stroke-width="1" stroke-opacity="0"></use></g></g><g><use xlink:href="#a19U7bbk2j" opacity="1" fill="#c5c3c6" fill-opacity="1"></use><g><use xlink:href="#a19U7bbk2j" opacity="1" fill-opacity="0" stroke="#000000" stroke-width="1" stroke-opacity="0"></use></g></g><g><use xlink:href="#ba4PTIXZL" opacity="1" fill="#c5c3c6" fill-opacity="1"></use><g><use xlink:href="#ba4PTIXZL" opacity="1" fill-opacity="0" stroke="#000000" stroke-width="1" stroke-opacity="0"></use></g></g><g><use xlink:href="#f1RnJW9qsY" opacity="1" fill="#c5c3c6" fill-opacity="1"></use><g><use xlink:href="#f1RnJW9qsY" opacity="1" fill-opacity="0" stroke="#000000" stroke-width="1" stroke-opacity="0"></use></g></g><g><use xlink:href="#c1JepVNpxP" opacity="1" fill="#c5c3c6" fill-opacity="1"></use><g><use xlink:href="#c1JepVNpxP" opacity="1" fill-opacity="0" stroke="#000000" stroke-width="1" stroke-opacity="0"></use></g></g><g><use xlink:href="#a7oYuM0G4b" opacity="1" fill="#c5c3c6" fill-opacity="1"></use><g><use xlink:href="#a7oYuM0G4b" opacity="1" fill-opacity="0" stroke="#000000" stroke-width="1" stroke-opacity="0"></use></g></g><g><use xlink:href="#hjhfwzRVb" opacity="1" fill="#c5c3c6" fill-opacity="1"></use><g><use xlink:href="#hjhfwzRVb" opacity="1" fill-opacity="0" stroke="#000000" stroke-width="1" stroke-opacity="0"></use></g></g><g><use xlink:href="#bbstxKqEf" opacity="1" fill="#c5c3c6" fill-opacity="1"></use><g><use xlink:href="#bbstxKqEf" opacity="1" fill-opacity="0" stroke="#000000" stroke-width="1" stroke-opacity="0"></use></g></g><g><use xlink:href="#j46gu4PJid" opacity="1" fill="#c5c3c6" fill-opacity="1"></use><g><use xlink:href="#j46gu4PJid" opacity="1" fill-opacity="0" stroke="#000000" stroke-width="1" stroke-opacity="0"></use></g></g><g><use xlink:href="#aDrX4E2CL" opacity="1" fill="#c5c3c6" fill-opacity="1"></use><g><use xlink:href="#aDrX4E2CL" opacity="1" fill-opacity="0" stroke="#000000" stroke-width="1" stroke-opacity="0"></use></g></g><g><use xlink:href="#b3b3yJQeM" opacity="1" fill="#c5c3c6" fill-opacity="1"></use><g><use xlink:href="#b3b3yJQeM" opacity="1" fill-opacity="0" stroke="#000000" stroke-width="1" stroke-opacity="0"></use></g></g><g><use xlink:href="#aGyCqpDLk" opacity="1" fill="#c5c3c6" fill-opacity="1"></use><g><use xlink:href="#aGyCqpDLk" opacity="1" fill-opacity="0" stroke="#000000" stroke-width="1" stroke-opacity="0"></use></g></g><g><use xlink:href="#dKJG2GT7G" opacity="1" fill="#c5c3c6" fill-opacity="1"></use><g><use xlink:href="#dKJG2GT7G" opacity="1" fill-opacity="0" stroke="#000000" stroke-width="1" stroke-opacity="0"></use></g></g><g><use xlink:href="#b3yYKYwsfZ" opacity="1" fill="#c5c3c6" fill-opacity="1"></use><g><use xlink:href="#b3yYKYwsfZ" opacity="1" fill-opacity="0" stroke="#000000" stroke-width="1" stroke-opacity="0"></use></g></g><g><use xlink:href="#c1OB5wvc9" opacity="1" fill="#c5c3c6" fill-opacity="1"></use><g><use xlink:href="#c1OB5wvc9" opacity="1" fill-opacity="0" stroke="#000000" stroke-width="1" stroke-opacity="0"></use></g></g><g><use xlink:href="#ciQnkE1Am" opacity="1" fill="#c5c3c6" fill-opacity="1"></use><g><use xlink:href="#ciQnkE1Am" opacity="1" fill-opacity="0" stroke="#000000" stroke-width="1" stroke-opacity="0"></use></g></g><g><use xlink:href="#b2lXjGxqtW" opacity="1" fill="#c5c3c6" fill-opacity="1"></use><g><use xlink:href="#b2lXjGxqtW" opacity="1" fill-opacity="0" stroke="#000000" stroke-width="1" stroke-opacity="0"></use></g></g><g><use xlink:href="#e1lRIq3Weu" opacity="1" fill="#c5c3c6" fill-opacity="1"></use><g><use xlink:href="#e1lRIq3Weu" opacity="1" fill-opacity="0" stroke="#000000" stroke-width="1" stroke-opacity="0"></use></g></g><g><use xlink:href="#b2ftK6qhA" opacity="1" fill="#c5c3c6" fill-opacity="1"></use><g><use xlink:href="#b2ftK6qhA" opacity="1" fill-opacity="0" stroke="#000000" stroke-width="1" stroke-opacity="0"></use></g></g><g><use xlink:href="#e1p38PmJmn" opacity="1" fill="#c5c3c6" fill-opacity="1"></use><g><use xlink:href="#e1p38PmJmn" opacity="1" fill-opacity="0" stroke="#000000" stroke-width="1" stroke-opacity="0"></use></g></g><g><use xlink:href="#d3x5SmcQmB" opacity="1" fill="#c5c3c6" fill-opacity="1"></use><g><use xlink:href="#d3x5SmcQmB" opacity="1" fill-opacity="0" stroke="#000000" stroke-width="1" stroke-opacity="0"></use></g></g><g><use xlink:href="#gCfvRZJsn" opacity="1" fill="#c5c3c6" fill-opacity="1"></use><g><use xlink:href="#gCfvRZJsn" opacity="1" fill-opacity="0" stroke="#000000" stroke-width="1" stroke-opacity="0"></use></g></g><g><use xlink:href="#d1vitrZzn" opacity="1" fill="#c5c3c6" fill-opacity="1"></use><g><use xlink:href="#d1vitrZzn" opacity="1" fill-opacity="0" stroke="#000000" stroke-width="1" stroke-opacity="0"></use></g></g><g><use xlink:href="#b4empvzqul" opacity="1" fill="#c5c3c6" fill-opacity="1"></use><g><use xlink:href="#b4empvzqul" opacity="1" fill-opacity="0" stroke="#000000" stroke-width="1" stroke-opacity="0"></use></g></g><g><use xlink:href="#gbUi3iMIA" opacity="1" fill="#c5c3c6" fill-opacity="1"></use><g><use xlink:href="#gbUi3iMIA" opacity="1" fill-opacity="0" stroke="#000000" stroke-width="1" stroke-opacity="0"></use></g></g><g><use xlink:href="#b3RxRl5YMb" opacity="1" fill="#c5c3c6" fill-opacity="1"></use><g><use xlink:href="#b3RxRl5YMb" opacity="1" fill-opacity="0" stroke="#000000" stroke-width="1" stroke-opacity="0"></use></g></g><g><use xlink:href="#a5gJycdaNe" opacity="1" fill="#c5c3c6" fill-opacity="1"></use><g><use xlink:href="#a5gJycdaNe" opacity="1" fill-opacity="0" stroke="#000000" stroke-width="1" stroke-opacity="0"></use></g></g><g><use xlink:href="#c17BcAvNFt" opacity="1" fill="#c5c3c6" fill-opacity="1"></use><g><use xlink:href="#c17BcAvNFt" opacity="1" fill-opacity="0" stroke="#000000" stroke-width="1" stroke-opacity="0"></use></g></g><g><use xlink:href="#b1CP4jix93" opacity="1" fill="#c5c3c6" fill-opacity="1"></use><g><use xlink:href="#b1CP4jix93" opacity="1" fill-opacity="0" stroke="#000000" stroke-width="1" stroke-opacity="0"></use></g></g><g><use xlink:href="#a1joj1vKLA" opacity="1" fill="#c5c3c6" fill-opacity="1"></use><g><use xlink:href="#a1joj1vKLA" opacity="1" fill-opacity="0" stroke="#000000" stroke-width="1" stroke-opacity="0"></use></g></g><g><use xlink:href="#a3h8j5n3yA" opacity="1" fill="#c5c3c6" fill-opacity="1"></use><g><use xlink:href="#a3h8j5n3yA" opacity="1" fill-opacity="0" stroke="#000000" stroke-width="1" stroke-opacity="0"></use></g></g><g><use xlink:href="#b1WSElcJkG" opacity="1" fill="#c5c3c6" fill-opacity="1"></use><g><use xlink:href="#b1WSElcJkG" opacity="1" fill-opacity="0" stroke="#000000" stroke-width="1" stroke-opacity="0"></use></g></g><g><use xlink:href="#bqcMCveVR" opacity="1" fill="#c5c3c6" fill-opacity="1"></use><g><use xlink:href="#bqcMCveVR" opacity="1" fill-opacity="0" stroke="#000000" stroke-width="1" stroke-opacity="0"></use></g></g><g><use xlink:href="#atU3YlyDl" opacity="1" fill="#c5c3c6" fill-opacity="1"></use><g><use xlink:href="#atU3YlyDl" opacity="1" fill-opacity="0" stroke="#000000" stroke-width="1" stroke-opacity="0"></use></g></g><g><use xlink:href="#c2iaw8weQX" opacity="1" fill="#c5c3c6" fill-opacity="1"></use><g><use xlink:href="#c2iaw8weQX" opacity="1" fill-opacity="0" stroke="#000000" stroke-width="1" stroke-opacity="0"></use></g></g><g><use xlink:href="#b1wK53EIm2" opacity="1" fill="#c5c3c6" fill-opacity="1"></use><g><use xlink:href="#b1wK53EIm2" opacity="1" fill-opacity="0" stroke="#000000" stroke-width="1" stroke-opacity="0"></use></g></g><g><use xlink:href="#b3CBRkCSs6" opacity="1" fill="#c5c3c6" fill-opacity="1"></use><g><use xlink:href="#b3CBRkCSs6" opacity="1" fill-opacity="0" stroke="#000000" stroke-width="1" stroke-opacity="0"></use></g></g><g><use xlink:href="#h3lsA8dXlS" opacity="1" fill="#c5c3c6" fill-opacity="1"></use><g><use xlink:href="#h3lsA8dXlS" opacity="1" fill-opacity="0" stroke="#000000" stroke-width="1" stroke-opacity="0"></use></g></g><g><use xlink:href="#aNbcygBgS" opacity="1" fill="#c5c3c6" fill-opacity="1"></use><g><use xlink:href="#aNbcygBgS" opacity="1" fill-opacity="0" stroke="#000000" stroke-width="1" stroke-opacity="0"></use></g></g><g><use xlink:href="#a4Hb2gdQGK" opacity="1" fill="#c5c3c6" fill-opacity="1"></use><g><use xlink:href="#a4Hb2gdQGK" opacity="1" fill-opacity="0" stroke="#000000" stroke-width="1" stroke-opacity="0"></use></g></g><g><use xlink:href="#d2J3rrplfQ" opacity="1" fill="#c5c3c6" fill-opacity="1"></use><g><use xlink:href="#d2J3rrplfQ" opacity="1" fill-opacity="0" stroke="#000000" stroke-width="1" stroke-opacity="0"></use></g></g><g><use xlink:href="#azrT6zAT5" opacity="1" fill="#c5c3c6" fill-opacity="1"></use><g><use xlink:href="#azrT6zAT5" opacity="1" fill-opacity="0" stroke="#000000" stroke-width="1" stroke-opacity="0"></use></g></g><g><use xlink:href="#c5rNrR0YL6" opacity="1" fill="#c5c3c6" fill-opacity="1"></use><g><use xlink:href="#c5rNrR0YL6" opacity="1" fill-opacity="0" stroke="#000000" stroke-width="1" stroke-opacity="0"></use></g></g><g><use xlink:href="#a8cVpk6iU" opacity="1" fill="#c5c3c6" fill-opacity="1"></use><g><use xlink:href="#a8cVpk6iU" opacity="1" fill-opacity="0" stroke="#000000" stroke-width="1" stroke-opacity="0"></use></g></g><g><use xlink:href="#b40Dt5LKXN" opacity="1" fill="#c5c3c6" fill-opacity="1"></use><g><use xlink:href="#b40Dt5LKXN" opacity="1" fill-opacity="0" stroke="#000000" stroke-width="1" stroke-opacity="0"></use></g></g><g><use xlink:href="#a59wza9svl" opacity="1" fill="#c5c3c6" fill-opacity="1"></use><g><use xlink:href="#a59wza9svl" opacity="1" fill-opacity="0" stroke="#000000" stroke-width="1" stroke-opacity="0"></use></g></g><g><use xlink:href="#a3JCchykgL" opacity="1" fill="#c5c3c6" fill-opacity="1"></use><g><use xlink:href="#a3JCchykgL" opacity="1" fill-opacity="0" stroke="#000000" stroke-width="1" stroke-opacity="0"></use></g></g><g><use xlink:href="#b1R0JKOnQ" opacity="1" fill="#c5c3c6" fill-opacity="1"></use><g><use xlink:href="#b1R0JKOnQ" opacity="1" fill-opacity="0" stroke="#000000" stroke-width="1" stroke-opacity="0"></use></g></g><g><use xlink:href="#a1RW5KswB2" opacity="1" fill="#c5c3c6" fill-opacity="1"></use><g><use xlink:href="#a1RW5KswB2" opacity="1" fill-opacity="0" stroke="#000000" stroke-width="1" stroke-opacity="0"></use></g></g><g><use xlink:href="#alNiRAs3j" opacity="1" fill="#c5c3c6" fill-opacity="1"></use><g><use xlink:href="#alNiRAs3j" opacity="1" fill-opacity="0" stroke="#000000" stroke-width="1" stroke-opacity="0"></use></g></g><g><use xlink:href="#gp0zl4pGc" opacity="1" fill="#c5c3c6" fill-opacity="1"></use><g><use xlink:href="#gp0zl4pGc" opacity="1" fill-opacity="0" stroke="#000000" stroke-width="1" stroke-opacity="0"></use></g></g><g><use xlink:href="#c8PzKbXTe" opacity="1" fill="#c5c3c6" fill-opacity="1"></use><g><use xlink:href="#c8PzKbXTe" opacity="1" fill-opacity="0" stroke="#000000" stroke-width="1" stroke-opacity="0"></use></g></g><g><use xlink:href="#f1ue8EZQAg" opacity="1" fill="#c5c3c6" fill-opacity="1"></use><g><use xlink:href="#f1ue8EZQAg" opacity="1" fill-opacity="0" stroke="#000000" stroke-width="1" stroke-opacity="0"></use></g></g><g><use xlink:href="#b1BaKgBKUT" opacity="1" fill="#c5c3c6" fill-opacity="1"></use><g><use xlink:href="#b1BaKgBKUT" opacity="1" fill-opacity="0" stroke="#000000" stroke-width="1" stroke-opacity="0"></use></g></g><g><use xlink:href="#h1VeVgHlAc" opacity="1" fill="#c5c3c6" fill-opacity="1"></use><g><use xlink:href="#h1VeVgHlAc" opacity="1" fill-opacity="0" stroke="#000000" stroke-width="1" stroke-opacity="0"></use></g></g><g><use xlink:href="#a5AEJtuqL" opacity="1" fill="#c5c3c6" fill-opacity="1"></use><g><use xlink:href="#a5AEJtuqL" opacity="1" fill-opacity="0" stroke="#000000" stroke-width="1" stroke-opacity="0"></use></g></g></g></g></svg>