<svg xmlns="http://www.w3.org/2000/svg" xmlns:xlink="http://www.w3.org/1999/xlink" version="1.1" x="0px" y="0px" viewBox="0 0 100 125" style="enable-background:new 0 0 100 100;" xml:space="preserve"><path d="M84.7,89.5H15.3c-2.5,0-4.5-2-4.5-4.5V15c0-2.5,2-4.5,4.5-4.5h69.3c2.5,0,4.5,2,4.5,4.5v70C89.2,87.5,87.2,89.5,84.7,89.5z   M15.3,13.5c-0.8,0-1.5,0.7-1.5,1.5v70c0,0.8,0.7,1.5,1.5,1.5h69.3c0.8,0,1.5-0.7,1.5-1.5V15c0-0.8-0.7-1.5-1.5-1.5H15.3z"/><path d="M61.9,66.5H38.1c-2.5,0-4.5-2-4.5-4.5V38c0-2.5,2-4.5,4.5-4.5h23.8c2.5,0,4.5,2,4.5,4.5v24C66.4,64.5,64.4,66.5,61.9,66.5z   M38.1,36.5c-0.8,0-1.5,0.7-1.5,1.5v24c0,0.8,0.7,1.5,1.5,1.5h23.8c0.8,0,1.5-0.7,1.5-1.5V38c0-0.8-0.7-1.5-1.5-1.5H38.1z"/><circle cx="17.7" cy="17.6" r="1.8"/><circle cx="24.2" cy="17.6" r="1.8"/><circle cx="30.6" cy="17.6" r="1.8"/><circle cx="37.1" cy="17.6" r="1.8"/><circle cx="43.5" cy="17.6" r="1.8"/><circle cx="50" cy="17.6" r="1.8"/><circle cx="56.5" cy="17.6" r="1.8"/><circle cx="62.9" cy="17.6" r="1.8"/><circle cx="69.4" cy="17.6" r="1.8"/><circle cx="75.8" cy="17.6" r="1.8"/><circle cx="82.3" cy="17.6" r="1.8"/><circle cx="17.7" cy="24.1" r="1.8"/><circle cx="24.2" cy="24.1" r="1.8"/><circle cx="30.6" cy="24.1" r="1.8"/><circle cx="37.1" cy="24.1" r="1.8"/><circle cx="43.5" cy="24.1" r="1.8"/><circle cx="50" cy="24.1" r="1.8"/><circle cx="56.5" cy="24.1" r="1.8"/><circle cx="62.9" cy="24.1" r="1.8"/><circle cx="69.4" cy="24.1" r="1.8"/><circle cx="75.8" cy="24.1" r="1.8"/><circle cx="82.3" cy="24.1" r="1.8"/><circle cx="17.7" cy="30.6" r="1.8"/><circle cx="24.2" cy="30.6" r="1.8"/><circle cx="30.6" cy="30.6" r="1.8"/><circle cx="37.1" cy="30.6" r="1.8"/><circle cx="43.5" cy="30.6" r="1.8"/><circle cx="50" cy="30.6" r="1.8"/><circle cx="56.5" cy="30.6" r="1.8"/><circle cx="62.9" cy="30.6" r="1.8"/><circle cx="69.4" cy="30.6" r="1.8"/><circle cx="75.8" cy="30.6" r="1.8"/><circle cx="82.3" cy="30.6" r="1.8"/><circle cx="17.7" cy="37.1" r="1.8"/><circle cx="24.2" cy="37.1" r="1.8"/><circle cx="30.6" cy="37.1" r="1.8"/><circle cx="69.4" cy="37.1" r="1.8"/><circle cx="75.8" cy="37.1" r="1.8"/><circle cx="82.3" cy="37.1" r="1.8"/><circle cx="17.7" cy="43.5" r="1.8"/><circle cx="24.2" cy="43.5" r="1.8"/><circle cx="30.6" cy="43.5" r="1.8"/><circle cx="69.4" cy="43.5" r="1.8"/><circle cx="75.8" cy="43.5" r="1.8"/><circle cx="82.3" cy="43.5" r="1.8"/><circle cx="17.7" cy="50" r="1.8"/><circle cx="24.2" cy="50" r="1.8"/><circle cx="30.6" cy="50" r="1.8"/><circle cx="69.4" cy="50" r="1.8"/><circle cx="75.8" cy="50" r="1.8"/><circle cx="82.3" cy="50" r="1.8"/><circle cx="17.7" cy="56.5" r="1.8"/><circle cx="24.2" cy="56.5" r="1.8"/><circle cx="30.6" cy="56.5" r="1.8"/><circle cx="69.4" cy="56.5" r="1.8"/><circle cx="75.8" cy="56.5" r="1.8"/><circle cx="82.3" cy="56.5" r="1.8"/><circle cx="17.7" cy="63" r="1.8"/><circle cx="24.2" cy="63" r="1.8"/><circle cx="30.6" cy="63" r="1.8"/><circle cx="69.4" cy="63" r="1.8"/><circle cx="75.8" cy="63" r="1.8"/><circle cx="82.3" cy="63" r="1.8"/><circle cx="17.7" cy="69.5" r="1.8"/><circle cx="24.2" cy="69.5" r="1.8"/><circle cx="30.6" cy="69.5" r="1.8"/><circle cx="37.1" cy="69.5" r="1.8"/><circle cx="43.5" cy="69.5" r="1.8"/><circle cx="50" cy="69.5" r="1.8"/><circle cx="56.5" cy="69.5" r="1.8"/><circle cx="62.9" cy="69.5" r="1.8"/><circle cx="69.4" cy="69.5" r="1.8"/><circle cx="75.8" cy="69.5" r="1.8"/><circle cx="82.3" cy="69.5" r="1.8"/><circle cx="17.7" cy="76" r="1.8"/><circle cx="24.2" cy="76" r="1.8"/><circle cx="30.6" cy="76" r="1.8"/><circle cx="37.1" cy="76" r="1.8"/><circle cx="43.5" cy="76" r="1.8"/><circle cx="50" cy="76" r="1.8"/><circle cx="56.5" cy="76" r="1.8"/><circle cx="62.9" cy="76" r="1.8"/><circle cx="69.4" cy="76" r="1.8"/><circle cx="75.8" cy="76" r="1.8"/><circle cx="82.3" cy="76" r="1.8"/><circle cx="17.7" cy="82.5" r="1.8"/><circle cx="24.2" cy="82.5" r="1.8"/><circle cx="30.6" cy="82.5" r="1.8"/><circle cx="37.1" cy="82.5" r="1.8"/><circle cx="43.5" cy="82.5" r="1.8"/><circle cx="50" cy="82.5" r="1.8"/><circle cx="56.5" cy="82.5" r="1.8"/><circle cx="62.9" cy="82.5" r="1.8"/><circle cx="69.4" cy="82.5" r="1.8"/><circle cx="75.8" cy="82.5" r="1.8"/><circle cx="82.3" cy="82.5" r="1.8"/><circle cx="20.9" cy="20.8" r="1.8"/><circle cx="27.4" cy="20.8" r="1.8"/><circle cx="33.8" cy="20.8" r="1.8"/><circle cx="40.3" cy="20.8" r="1.8"/><circle cx="46.8" cy="20.8" r="1.8"/><circle cx="53.2" cy="20.8" r="1.8"/><circle cx="59.7" cy="20.8" r="1.8"/><circle cx="66.1" cy="20.8" r="1.8"/><circle cx="72.6" cy="20.8" r="1.8"/><circle cx="79" cy="20.8" r="1.8"/><circle cx="20.9" cy="27.3" r="1.8"/><circle cx="27.4" cy="27.3" r="1.8"/><circle cx="33.8" cy="27.3" r="1.8"/><circle cx="40.3" cy="27.3" r="1.8"/><circle cx="46.8" cy="27.3" r="1.8"/><circle cx="53.2" cy="27.3" r="1.8"/><circle cx="59.7" cy="27.3" r="1.8"/><circle cx="66.1" cy="27.3" r="1.8"/><circle cx="72.6" cy="27.3" r="1.8"/><circle cx="79" cy="27.3" r="1.8"/><circle cx="20.9" cy="33.8" r="1.8"/><circle cx="27.4" cy="33.8" r="1.8"/><circle cx="72.6" cy="33.8" r="1.8"/><circle cx="79" cy="33.8" r="1.8"/><circle cx="20.9" cy="40.3" r="1.8"/><circle cx="27.4" cy="40.3" r="1.8"/><circle cx="72.6" cy="40.3" r="1.8"/><circle cx="79" cy="40.3" r="1.8"/><circle cx="20.9" cy="46.7" r="1.8"/><circle cx="27.4" cy="46.7" r="1.8"/><circle cx="72.6" cy="46.7" r="1.8"/><circle cx="79" cy="46.7" r="1.8"/><circle cx="20.9" cy="53.2" r="1.8"/><circle cx="27.4" cy="53.2" r="1.8"/><circle cx="72.6" cy="53.2" r="1.8"/><circle cx="79" cy="53.2" r="1.8"/><circle cx="20.9" cy="59.7" r="1.8"/><circle cx="27.4" cy="59.7" r="1.8"/><circle cx="72.6" cy="59.7" r="1.8"/><circle cx="79" cy="59.7" r="1.8"/><circle cx="20.9" cy="66.2" r="1.8"/><circle cx="27.4" cy="66.2" r="1.8"/><circle cx="72.6" cy="66.2" r="1.8"/><circle cx="79" cy="66.2" r="1.8"/><circle cx="20.9" cy="72.7" r="1.8"/><circle cx="27.4" cy="72.7" r="1.8"/><circle cx="33.8" cy="72.7" r="1.8"/><circle cx="40.3" cy="72.7" r="1.8"/><circle cx="46.8" cy="72.7" r="1.8"/><circle cx="53.2" cy="72.7" r="1.8"/><circle cx="59.7" cy="72.7" r="1.8"/><circle cx="66.1" cy="72.7" r="1.8"/><circle cx="72.6" cy="72.7" r="1.8"/><circle cx="79" cy="72.7" r="1.8"/><circle cx="20.9" cy="79.2" r="1.8"/><circle cx="27.4" cy="79.2" r="1.8"/><circle cx="33.8" cy="79.2" r="1.8"/><circle cx="40.3" cy="79.2" r="1.8"/><circle cx="46.8" cy="79.2" r="1.8"/><circle cx="53.2" cy="79.2" r="1.8"/><circle cx="59.7" cy="79.2" r="1.8"/><circle cx="66.1" cy="79.2" r="1.8"/><circle cx="72.6" cy="79.2" r="1.8"/><circle cx="79" cy="79.2" r="1.8"/><text x="0" y="115" fill="#000000" font-size="5px" font-weight="bold" font-family="'Helvetica Neue', Helvetica, Arial-Unicode, Arial, Sans-serif">Created by Yanick Brezet</text><text x="0" y="120" fill="#000000" font-size="5px" font-weight="bold" font-family="'Helvetica Neue', Helvetica, Arial-Unicode, Arial, Sans-serif">from the Noun Project</text></svg>