<svg xmlns="http://www.w3.org/2000/svg" xmlns:xlink="http://www.w3.org/1999/xlink" version="1.1" x="0px" y="0px" viewBox="0 0 100 125" enable-background="new 0 0 100 100" xml:space="preserve"><g display="none"><path display="inline" fill="#000000" d="M77.3,87.5L61,55.7c-0.8,4.8-2.3,9.4-4.3,13.6l11.6,22.8c0.9,1.7,2.6,2.7,4.5,2.7   c0.8,0,1.5-0.2,2.3-0.5C77.6,93,78.5,90,77.3,87.5z"/><circle display="inline" fill="#000000" cx="50.6" cy="13.4" r="8.4"/><path display="inline" fill="#000000" d="M70.7,40.5c-9.2-3.9-15.2-13.8-15.3-14c-1.5-2.6-4.9-3.5-7.5-1.9c-0.4,0.2-0.7,0.5-1,0.7   c-3.4,2.2-12.2,9-16.7,23.8c-0.9,2.8,0.7,5.8,3.6,6.7c2.8,0.9,5.8-0.7,6.7-3.6c1.9-6.3,4.7-10.7,7.2-13.5c0.6,3.7,0.9,8.6,0,14.1   C44.9,70,29,85.6,28.8,85.8c-2.1,2.1-2.2,5.4-0.1,7.6c1.1,1.1,2.4,1.6,3.8,1.6c1.3,0,2.7-0.5,3.7-1.5C37,92.8,55,75.2,58.1,54.6   c0.5-2.9,0.6-5.7,0.7-8.3c2.3,1.7,4.8,3.2,7.6,4.4c0.7,0.3,1.4,0.4,2.1,0.4c2.1,0,4.2-1.3,5.1-3.3C74.8,44.9,73.5,41.7,70.7,40.5z"/></g><g display="none"><g display="inline"><path d="M64,8c11.9,0,21.5,9.7,21.5,21.5S75.9,51,64,51c-11.9,0-21.5-9.7-21.5-21.5S52.2,8,64,8 M64,5C50.5,5,39.5,16,39.5,29.5    S50.5,54,64,54c13.5,0,24.5-11,24.5-24.5S77.6,5,64,5L64,5z"/><path fill="#000000" d="M66.2,61.3c-1.6-3.4-4.6-7.4-4.6-7.4c-4.5-0.7-7.5-1.3-13.1-5.4c1.7-2.5,4.9-5.2,7.9-6.8    c4.4-2.3,10.4-2,9.6-5.6c-0.4-1.7-4-2.6-8.3-2.3c-2.9,0.2-6,0.5-11.3,2.2c-4.2,1.3-10.5,4.5-12.1,7.6c-1.9,3.3-0.8,8.4,3,12.3    c0,0,3.8,3.9,9,9.5c3.6,3.9,8.7,9.6,10.3,16.4c1.5,6.2,1.5,6.2,1.5,6.2c0.5,3.2,2.7,5.8,4.8,5.7c2.2-0.1,4.5-5.1,5.3-11.2    C68.1,82.3,69.7,68.9,66.2,61.3z"/><path d="M24.8,18.6c5.7,0,10.3,4.6,10.3,10.3s-4.6,10.3-10.3,10.3c-5.7,0-10.3-4.6-10.3-10.3S19.1,18.6,24.8,18.6 M24.8,15.7    c-7.3,0-13.3,6-13.3,13.3c0,7.3,6,13.3,13.3,13.3c7.3,0,13.3-6,13.3-13.3C38.1,21.6,32.1,15.7,24.8,15.7L24.8,15.7z"/><path d="M67.6,60.7c-1.6-3.5-4.7-7.5-4.8-7.7c-0.2-0.3-0.6-0.5-0.9-0.6c-3.9-0.6-6.6-1-11.2-4.2c1.6-1.9,4.1-3.9,6.5-5.2    c1.4-0.7,3-1.2,4.5-1.6c3-0.8,6.7-1.9,5.8-5.6c-0.5-2.2-3.6-3.5-8.3-3.5c-0.5,0-1,0-1.6,0.1c-3.1,0.2-6.3,0.5-11.7,2.3    c-3.6,1.2-10.9,4.4-13,8.3c-2.3,3.9-1,9.8,3.2,14c0,0,3.9,4,9,9.5c1.2,1.3,2.4,2.6,3.5,4c0.2,3.7,0.4,8.4,0,10.9    c-0.4,2.3-2.4,7.9-0.8,9.2c1.2,0.9,4.7-1,7.5-4.2c0.2-0.2,0.3-0.4,0.5-0.6l0.6,2.6c0.6,3.9,3.3,6.9,6.1,6.9l0.2,0    c3.5-0.2,5.9-6.6,6.7-12.5C69.6,81.9,71.2,68.6,67.6,60.7z M66.6,82.2c-0.8,6.3-3.1,9.8-3.9,9.9l0,0c-1.2,0-2.8-1.8-3.2-4.4    c0,0,0-0.1,0-0.1L58,81.3c-1.6-6.7-6.3-12.4-10.6-17.1c-5.2-5.5-9-9.5-9.1-9.5c-3.2-3.2-4.4-7.8-2.7-10.5    c1.3-2.4,6.8-5.5,11.3-6.9c5.1-1.6,8-1.9,11-2.1c0.5,0,0.9,0,1.4,0c3.6,0,5.2,0.9,5.4,1.3c0.2,0.8-0.3,1.1-3.7,2.1    c-1.6,0.5-3.4,1-5.1,1.9c-3.3,1.7-6.6,4.6-8.4,7.3c-0.3,0.5-0.3,1-0.1,1.5l0,0c0,0,6.8,10.1,16.3,10.1c0.5,0.9,1,1.8,1.4,2.6    C68.2,69,66.6,82,66.6,82.2z"/></g></g><g display="none"><g display="inline"><path fill="#000000" d="M88.6,25.9H62.9v-5.4c0-2.4-1.9-4.3-4.3-4.3H41.4c-2.4,0-4.3,1.9-4.3,4.3v5.4H11.4c-3.5,0-6.4,2.9-6.4,6.4    v45c0,3.5,2.9,6.4,6.4,6.4h77.1c3.5,0,6.4-2.9,6.4-6.4v-45C95,28.8,92.1,25.9,88.6,25.9z M41.4,20.5h17.1l0,5.4H41.4V20.5z     M73.8,30.2v49.3H26.3V30.2H73.8z M9.3,77.3v-45c0-1.2,1-2.1,2.1-2.1h8.7v49.3h-8.7C10.2,79.5,9.3,78.5,9.3,77.3z M90.7,77.3    c0,1.2-1,2.1-2.1,2.1H80V30.2h8.6c1.2,0,2.1,1,2.1,2.1V77.3z"/><path fill="#000000" d="M57,34.8L40.7,51.1L51.6,62l16.3-16.3l0-10.9L57,34.8z M64.1,41.9c-0.9,0.9-2.4,0.9-3.3,0    c-0.9-0.9-0.9-2.4,0-3.3c0.9-0.9,2.4-0.9,3.3,0C65,39.5,65,41,64.1,41.9z"/></g></g><g><g><path d="M94.5,57.5c-1.6-0.4-3.2,0.6-3.6,2.3c-4.4,19.2-21.2,32.6-41,32.6c-15,0-29-8.1-36.5-21.2c0-0.1-0.1-0.1-0.1-0.2    c0,0,0-0.1-0.1-0.1c-1.2-2.1-2.9-6.7-3.3-8c-0.9-3.5-0.8-5.8,0.2-7.2c1.3-1.6,4.3-2.5,8.8-2.6h4.8c0,0,0,0,0,0v4.4    c0,3.2,2,5.8,4.6,5.8h13v-5h7.9v-5.9h-7.9v-4h7.9v-5.9h-7.9v-5h-13c-2.5,0-4.6,2.6-4.6,5.8V47c0,0,0,0,0,0h-4.8    C12.4,47.1,8,48.7,5.5,51.9c-2.3,3-2.7,7-1.3,12.4c0.4,1.6,2.3,6.8,3.9,9.5c0,0.1,0.1,0.1,0.1,0.1c0,0,0,0.1,0.1,0.1    C16.8,89.1,32.8,98.4,50,98.4c22.6,0,41.8-15.3,46.8-37.3C97.2,59.5,96.2,57.8,94.5,57.5z M43.5,54.4h3.9v1.9h-3.9V54.4z     M43.5,44.4h3.9v1.9h-3.9V44.4z M27.9,43.3c0-1.1,0.4-1.7,0.7-1.8h8.9v17.8h-8.9c-0.2-0.2-0.7-0.8-0.7-1.8V43.3z"/><path d="M5.5,43.2c0.2,0.1,0.4,0.1,0.7,0.1c1.4,0,2.6-0.9,2.9-2.3C13.4,21.8,30.3,8.4,50,8.4c15,0,29,8.1,36.5,21.2    c0.1,0.2,0.3,0.4,0.4,0.6c1.2,2.3,2.6,6.3,3,7.5c0.9,3.5,0.8,5.8-0.2,7.2c-1.3,1.6-4.3,2.5-8.8,2.6h-4.7v-4c0-3.2-2-5.8-4.6-5.8    h-13v25.8h13c2.5,0,4.6-2.6,4.6-5.8v-4h4.7c6.6-0.1,11.1-1.7,13.6-4.9c2.3-3,2.7-7,1.3-12.4c-0.4-1.6-2.3-6.8-3.9-9.5    c-0.1-0.3-0.3-0.5-0.5-0.7C82.6,11.4,66.9,2.4,50,2.4C27.4,2.4,8.2,17.7,3.2,39.7C2.8,41.3,3.8,42.9,5.5,43.2z M72.1,57.4    c0,1.1-0.4,1.7-0.7,1.8h-8.9V41.5h8.9c0.2,0.2,0.7,0.8,0.7,1.8V57.4z"/></g></g><text x="0" y="115" fill="#000000" font-size="5px" font-weight="bold" font-family="'Helvetica Neue', Helvetica, Arial-Unicode, Arial, Sans-serif">Created by Christopher Smith</text><text x="0" y="120" fill="#000000" font-size="5px" font-weight="bold" font-family="'Helvetica Neue', Helvetica, Arial-Unicode, Arial, Sans-serif">from the Noun Project</text></svg>